<?xml version="1.0" encoding="UTF-8"?>
<svg width="217px" height="39px" viewBox="0 0 217 39" version="1.1" xmlns="http://www.w3.org/2000/svg" xmlns:xlink="http://www.w3.org/1999/xlink">
    <!-- Generator: Sketch 48.2 (47327) - http://www.bohemiancoding.com/sketch -->
    <title>highoutput-logo</title>
    <desc>Created with Sketch.</desc>
    <defs></defs>
    <g id="Symbols" stroke="none" stroke-width="1" fill="none" fill-rule="evenodd">
        <g id="highoutput-logo" fill="#FFFFFF">
            <g transform="translate(0.000000, 1.000000)">
                <g id="logo-mark" fill-rule="nonzero">
                    <polygon id="_Path_" points="16 38 11 38 11 30.5388015 16 27"></polygon>
                    <polygon id="_Path_2" points="5 38 0 38 0 38 5 34"></polygon>
                    <path d="M43,10.2311558 L43,38 L58,38 L58,0 L43,10.2311558 Z M53.1806641,33.2261307 L47.8095703,33.2261307 L47.8095703,12.9698492 L53.1806641,9.4120603 L53.1806641,33.2261307 Z" id="_Compound_Path_"></path>
                    <polygon id="_Path_3" points="32.1806641 17.2922564 32.1806641 24.9358867 26.819336 28.5778518 26.819336 20.9292257 22 24.1965029 22 38 26.819336 38 26.819336 34.7776853 32.1806641 31.1357203 32.1806641 38 37 38 37 14"></polygon>
                </g>
                <g id="logo-text" transform="translate(70.000000, 2.000000)">
                    <path d="M1.77734375,1.20117188 L4.2578125,1.20117188 L4.2578125,6.96289062 L10.3027344,6.96289062 L10.3027344,1.20117188 L12.7832031,1.20117188 L12.7832031,15 L10.3027344,15 L10.3027344,9.23828125 L4.2578125,9.23828125 L4.2578125,15 L1.77734375,15 L1.77734375,1.20117188 Z M18.3378906,1.20117188 L20.8183594,1.20117188 L20.8183594,15 L18.3378906,15 L18.3378906,1.20117188 Z M28.3847656,14.2382812 C27.3821564,13.6002572 26.633466,12.7425184 26.1386719,11.6650391 C25.6438777,10.5875597 25.3964844,9.39779297 25.3964844,8.09570312 C25.3964844,6.78710283 25.6422501,5.5957085 26.1337891,4.52148438 C26.625328,3.44726025 27.3707632,2.58789385 28.3701172,1.94335938 C29.3694711,1.2988249 30.5983,0.9765625 32.0566406,0.9765625 C33.423835,0.9765625 34.6298776,1.31672837 35.6748047,1.99707031 C36.7197318,2.67741226 37.5188774,3.65884775 38.0722656,4.94140625 L35.875,5.859375 C35.5690089,4.94791211 35.0807325,4.26758037 34.4101563,3.81835938 C33.73958,3.36913838 32.9485723,3.14453125 32.0371094,3.14453125 C31.1061151,3.14453125 30.3265005,3.36425562 29.6982422,3.80371094 C29.0699838,4.24316626 28.6061213,4.8290979 28.3066406,5.56152344 C28.00716,6.29394897 27.8574219,7.10611533 27.8574219,7.99804688 C27.8574219,8.94857246 28.00716,9.79817334 28.3066406,10.546875 C28.6061213,11.2955767 29.0716114,11.8880187 29.703125,12.3242188 C30.3346386,12.7604188 31.1256463,12.9785156 32.0761719,12.9785156 C32.7337272,12.9785156 33.3391899,12.8369155 33.8925781,12.5537109 C34.4459663,12.2705064 34.9016909,11.8701198 35.2597656,11.3525391 C35.6178403,10.8349583 35.8424475,10.2311232 35.9335938,9.54101562 L32.7988281,9.54101562 L32.7988281,7.5390625 L38.3359375,7.5390625 L38.3359375,15 L36.3730469,15 L36.1582031,13.0566406 C35.7805971,13.714196 35.2321,14.2350241 34.5126953,14.6191406 C33.7932907,15.0032571 32.9811243,15.1953125 32.0761719,15.1953125 C30.6178313,15.1953125 29.3873748,14.8763053 28.3847656,14.2382812 Z M43.3535156,1.20117188 L45.8339844,1.20117188 L45.8339844,6.96289062 L51.8789063,6.96289062 L51.8789063,1.20117188 L54.359375,1.20117188 L54.359375,15 L51.8789063,15 L51.8789063,9.23828125 L45.8339844,9.23828125 L45.8339844,15 L43.3535156,15 L43.3535156,1.20117188 Z M61.9111328,14.2333984 C60.9117789,13.5921192 60.1663436,12.7343804 59.6748047,11.6601562 C59.1832658,10.5859321 58.9375,9.39779297 58.9375,8.09570312 C58.9375,6.79361328 59.1832658,5.60547412 59.6748047,4.53125 C60.1663436,3.45702588 60.9117789,2.59928706 61.9111328,1.95800781 C62.9104868,1.31672856 64.1393156,0.99609375 65.5976562,0.99609375 C67.0559969,0.99609375 68.2848257,1.31672856 69.2841797,1.95800781 C70.2835336,2.59928706 71.0289689,3.45702588 71.5205078,4.53125 C72.0120467,5.60547412 72.2578125,6.79361328 72.2578125,8.09570312 C72.2578125,9.39779297 72.0120467,10.5859321 71.5205078,11.6601562 C71.0289689,12.7343804 70.2835336,13.5921192 69.2841797,14.2333984 C68.2848257,14.8746777 67.0559969,15.1953125 65.5976562,15.1953125 C64.1393156,15.1953125 62.9104868,14.8746777 61.9111328,14.2333984 Z M67.9169922,12.3388672 C68.5192087,11.8994119 68.9570299,11.3118526 69.2304688,10.5761719 C69.5039076,9.84049111 69.640625,9.01367646 69.640625,8.09570312 C69.640625,7.17772979 69.5039076,6.35254272 69.2304688,5.62011719 C68.9570299,4.88769165 68.5192087,4.30176001 67.9169922,3.86230469 C67.3147756,3.42284937 66.5416714,3.203125 65.5976562,3.203125 C64.6536411,3.203125 63.8805369,3.42284937 63.2783203,3.86230469 C62.6761038,4.30176001 62.2382826,4.88769165 61.9648438,5.62011719 C61.6914049,6.35254272 61.5546875,7.17772979 61.5546875,8.09570312 C61.5546875,9.01367646 61.6914049,9.84049111 61.9648438,10.5761719 C62.2382826,11.3118526 62.6761038,11.8994119 63.2783203,12.3388672 C63.8805369,12.7783225 64.6536411,12.9980469 65.5976562,12.9980469 C66.5416714,12.9980469 67.3147756,12.7783225 67.9169922,12.3388672 Z M77.8173828,13.7255859 C76.9547483,12.7457633 76.5234375,11.3769619 76.5234375,9.61914062 L76.5234375,1.20117188 L78.9941406,1.20117188 L78.9941406,9.3359375 C78.9941406,10.1237019 79.0771476,10.7665991 79.2431641,11.2646484 C79.4091805,11.7626978 79.695636,12.1435534 80.1025391,12.4072266 C80.5094421,12.6708998 81.0742151,12.8027344 81.796875,12.8027344 C82.5195349,12.8027344 83.0859354,12.6725273 83.4960938,12.4121094 C83.9062521,12.1516914 84.1927075,11.7708358 84.3554688,11.2695312 C84.51823,10.7682267 84.5996094,10.1237019 84.5996094,9.3359375 L84.5996094,1.20117188 L87.0800781,1.20117188 L87.0800781,9.52148438 C87.0800781,11.3248788 86.6487673,12.7213492 85.7861328,13.7109375 C84.9234983,14.7005258 83.593759,15.1953125 81.796875,15.1953125 C80.0065015,15.1953125 78.6800173,14.7054085 77.8173828,13.7255859 Z M95.1152344,3.41796875 L90.7890625,3.41796875 L90.7890625,1.20117188 L101.912109,1.20117188 L101.912109,3.41796875 L97.5957031,3.41796875 L97.5957031,15 L95.1152344,15 L95.1152344,3.41796875 Z M105.894531,1.20117188 L110.220703,1.20117188 C111.164718,1.20117188 112.004554,1.36230308 112.740234,1.68457031 C113.475915,2.00683755 114.052081,2.47558286 114.46875,3.09082031 C114.885419,3.70605776 115.09375,4.43684473 115.09375,5.28320312 C115.09375,6.12305107 114.885419,6.84244492 114.46875,7.44140625 C114.052081,8.04036758 113.475915,8.49609219 112.740234,8.80859375 C112.004554,9.12109531 111.164718,9.27734375 110.220703,9.27734375 L108.355469,9.27734375 L108.355469,15 L105.894531,15 L105.894531,1.20117188 Z M110.220703,6.96289062 C111.054041,6.96289062 111.664386,6.82291807 112.051758,6.54296875 C112.43913,6.26301943 112.632813,5.84310176 112.632813,5.28320312 C112.632813,4.10481182 111.828784,3.515625 110.220703,3.515625 L108.355469,3.515625 L108.355469,6.96289062 L110.220703,6.96289062 Z M120.291992,13.7255859 C119.429358,12.7457633 118.998047,11.3769619 118.998047,9.61914062 L118.998047,1.20117188 L121.46875,1.20117188 L121.46875,9.3359375 C121.46875,10.1237019 121.551757,10.7665991 121.717773,11.2646484 C121.88379,11.7626978 122.170245,12.1435534 122.577148,12.4072266 C122.984052,12.6708998 123.548825,12.8027344 124.271484,12.8027344 C124.994144,12.8027344 125.560545,12.6725273 125.970703,12.4121094 C126.380861,12.1516914 126.667317,11.7708358 126.830078,11.2695312 C126.992839,10.7682267 127.074219,10.1237019 127.074219,9.3359375 L127.074219,1.20117188 L129.554688,1.20117188 L129.554688,9.52148438 C129.554688,11.3248788 129.123377,12.7213492 128.260742,13.7109375 C127.398108,14.7005258 126.068368,15.1953125 124.271484,15.1953125 C122.481111,15.1953125 121.154627,14.7054085 120.291992,13.7255859 Z M137.589844,3.41796875 L133.263672,3.41796875 L133.263672,1.20117188 L144.386719,1.20117188 L144.386719,3.41796875 L140.070312,3.41796875 L140.070312,15 L137.589844,15 L137.589844,3.41796875 Z" id="HIGHOUTPUT"></path>
                    <path d="M0.28125,25.1953125 L1.5546875,25.1953125 L3.7109375,31.484375 L5.8828125,25.1953125 L7.1328125,25.1953125 L4.2265625,33 L3.1953125,33 L0.28125,25.1953125 Z M9.70703125,32.5742188 C9.17838277,32.2174461 8.7825534,31.7382843 8.51953125,31.1367188 C8.2565091,30.5351532 8.125,29.8697953 8.125,29.140625 C8.125,28.4218714 8.25390496,27.7539093 8.51171875,27.1367188 C8.76953254,26.5195282 9.15364328,26.0234394 9.6640625,25.6484375 C10.1744817,25.2734356 10.791663,25.0859375 11.515625,25.0859375 C12.312504,25.0859375 12.9570288,25.2695294 13.4492188,25.6367188 C13.9414087,26.0039081 14.2942698,26.4739555 14.5078125,27.046875 C14.7213552,27.6197945 14.828125,28.2343717 14.828125,28.890625 C14.828125,29.0572925 14.8151043,29.2578113 14.7890625,29.4921875 L9.3515625,29.4921875 C9.34635414,29.9661482 9.43098871,30.3997376 9.60546875,30.7929688 C9.77994879,31.1861999 10.0390608,31.4999988 10.3828125,31.734375 C10.7265642,31.9687512 11.1432267,32.0859375 11.6328125,32.0859375 C12.1067732,32.0859375 12.5182274,32.0247402 12.8671875,31.9023438 C13.2161476,31.7799473 13.5364569,31.5625016 13.828125,31.25 L14.625,31.890625 C14.2031229,32.3177105 13.7565128,32.6276032 13.2851562,32.8203125 C12.8137997,33.0130218 12.2656281,33.109375 11.640625,33.109375 C10.8802045,33.109375 10.2356797,32.9309914 9.70703125,32.5742188 Z M13.7109375,28.5390625 C13.6953124,27.8307256 13.5104184,27.2382836 13.15625,26.7617188 C12.8020816,26.2851539 12.255212,26.046875 11.515625,26.046875 C11.0572894,26.046875 10.6692724,26.158853 10.3515625,26.3828125 C10.0338526,26.606772 9.79296957,26.9062481 9.62890625,27.28125 C9.46484293,27.6562519 9.37239594,28.0755185 9.3515625,28.5390625 L13.7109375,28.5390625 Z M16.8359375,25.1953125 L18,25.1953125 L18,26.5546875 C18.2656263,26.0859352 18.6132791,25.7187513 19.0429688,25.453125 C19.4726584,25.1874987 19.9635389,25.0546875 20.515625,25.0546875 C21.109378,25.0546875 21.6015605,25.1979152 21.9921875,25.484375 C22.3828145,25.7708348 22.670572,26.1549455 22.8554688,26.6367188 C23.0403655,27.118492 23.1328125,27.6588512 23.1328125,28.2578125 L23.1328125,33 L21.9765625,33 L21.9765625,28.375 C21.9765625,27.7395802 21.837241,27.1927106 21.5585938,26.734375 C21.2799465,26.2760394 20.8281281,26.046875 20.203125,26.046875 C19.7864563,26.046875 19.41146,26.1562489 19.078125,26.375 C18.74479,26.5937511 18.4817718,26.9205707 18.2890625,27.3554688 C18.0963532,27.7903668 18,28.3203094 18,28.9453125 L18,33 L16.8359375,33 L16.8359375,25.1953125 Z M25.859375,30.9296875 L25.859375,26.1484375 L24.609375,26.1484375 L24.609375,25.1953125 L25.8671875,25.1953125 L25.8671875,23.4375 L27.0234375,22.34375 L27.0234375,25.1953125 L29,25.1953125 L29,26.1484375 L27.0234375,26.1484375 L27.0234375,30.9375 C27.0234375,31.3489604 27.1145824,31.6614573 27.296875,31.875 C27.4791676,32.0885427 27.7187485,32.1953125 28.015625,32.1953125 C28.2656262,32.1953125 28.5260403,32.130209 28.796875,32 L28.796875,33 C28.6979162,33.0416669 28.5533864,33.0781248 28.3632812,33.109375 C28.1731761,33.1406252 27.9687511,33.15625 27.75,33.15625 C26.489577,33.15625 25.859375,32.4140699 25.859375,30.9296875 Z M31.296875,32.2304688 C30.8593728,31.6028614 30.640625,30.7682344 30.640625,29.7265625 L30.640625,25.1953125 L31.8046875,25.1953125 L31.8046875,29.8046875 C31.8046875,30.4817742 31.9270821,31.0481748 32.171875,31.5039062 C32.4166679,31.9596377 32.8411428,32.1875 33.4453125,32.1875 C33.8567729,32.1875 34.2408836,32.0703137 34.5976562,31.8359375 C34.9544289,31.6015613 35.2395823,31.281252 35.453125,30.875 C35.6666677,30.468748 35.7734375,30.0156275 35.7734375,29.515625 L35.7734375,25.1953125 L36.9296875,25.1953125 L36.9296875,33 L35.7734375,33 L35.7734375,31.6796875 C35.664062,31.919272 35.4921887,32.1536447 35.2578125,32.3828125 C35.0234363,32.6119803 34.7382829,32.8007805 34.4023437,32.9492188 C34.0664046,33.097657 33.7057311,33.171875 33.3203125,33.171875 C32.4088496,33.171875 31.7343772,32.8580761 31.296875,32.2304688 Z M39.5625,25.1953125 L40.7265625,25.1953125 L40.7265625,26.578125 C40.9296885,26.1041643 41.2408833,25.727866 41.6601562,25.4492188 C42.0794292,25.1705715 42.5364559,25.03125 43.03125,25.03125 C43.2864596,25.03125 43.5208323,25.067708 43.734375,25.140625 C43.9479177,25.213542 44.1328117,25.3124994 44.2890625,25.4375 L43.796875,26.4453125 C43.5624988,26.2473948 43.2447937,26.1484375 42.84375,26.1484375 C42.4010395,26.1484375 42.0195329,26.2643218 41.6992188,26.4960938 C41.3789046,26.7278657 41.1341154,27.065102 40.9648438,27.5078125 C40.7955721,27.950523 40.7109375,28.4817677 40.7109375,29.1015625 L40.7109375,33 L39.5625,33 L39.5625,25.1953125 Z M46.7539062,32.5742188 C46.2252578,32.2174461 45.8294284,31.7382843 45.5664062,31.1367188 C45.3033841,30.5351532 45.171875,29.8697953 45.171875,29.140625 C45.171875,28.4218714 45.30078,27.7539093 45.5585937,27.1367188 C45.8164075,26.5195282 46.2005183,26.0234394 46.7109375,25.6484375 C47.2213567,25.2734356 47.838538,25.0859375 48.5625,25.0859375 C49.359379,25.0859375 50.0039038,25.2695294 50.4960937,25.6367188 C50.9882837,26.0039081 51.3411448,26.4739555 51.5546875,27.046875 C51.7682302,27.6197945 51.875,28.2343717 51.875,28.890625 C51.875,29.0572925 51.8619793,29.2578113 51.8359375,29.4921875 L46.3984375,29.4921875 C46.3932291,29.9661482 46.4778637,30.3997376 46.6523437,30.7929688 C46.8268238,31.1861999 47.0859358,31.4999988 47.4296875,31.734375 C47.7734392,31.9687512 48.1901017,32.0859375 48.6796875,32.0859375 C49.1536482,32.0859375 49.5651024,32.0247402 49.9140625,31.9023438 C50.2630226,31.7799473 50.5833319,31.5625016 50.875,31.25 L51.671875,31.890625 C51.2499979,32.3177105 50.8033878,32.6276032 50.3320312,32.8203125 C49.8606747,33.0130218 49.3125031,33.109375 48.6875,33.109375 C47.9270795,33.109375 47.2825547,32.9309914 46.7539062,32.5742188 Z M50.7578125,28.5390625 C50.7421874,27.8307256 50.5572934,27.2382836 50.203125,26.7617188 C49.8489566,26.2851539 49.302087,26.046875 48.5625,26.046875 C48.1041644,26.046875 47.7161474,26.158853 47.3984375,26.3828125 C47.0807276,26.606772 46.8398446,26.9062481 46.6757812,27.28125 C46.5117179,27.6562519 46.4192709,28.0755185 46.3984375,28.5390625 L50.7578125,28.5390625 Z M54.7382812,32.8945312 C54.3398418,32.7200512 54.0039076,32.4869806 53.7304687,32.1953125 C53.4570299,31.9036444 53.2578131,31.5807309 53.1328125,31.2265625 L54.1171875,30.71875 C54.2630216,31.1614605 54.4999984,31.5195299 54.828125,31.7929688 C55.1562516,32.0664076 55.5677059,32.203125 56.0625,32.203125 C56.5208356,32.203125 56.8906236,32.091147 57.171875,31.8671875 C57.4531264,31.643228 57.59375,31.3255229 57.59375,30.9140625 C57.59375,30.6067693 57.5091154,30.3541677 57.3398437,30.15625 C57.1705721,29.9583323 56.9622408,29.804688 56.7148437,29.6953125 C56.4674467,29.585937 56.1276063,29.4609382 55.6953125,29.3203125 C55.2057267,29.1640617 54.8125015,29.0143236 54.515625,28.8710938 C54.2187485,28.7278639 53.9661469,28.5208347 53.7578125,28.25 C53.5494781,27.9791653 53.4453125,27.6276063 53.4453125,27.1953125 C53.4453125,26.7421852 53.5572905,26.3528662 53.78125,26.0273438 C54.0052095,25.7018213 54.3046856,25.4544279 54.6796875,25.2851562 C55.0546894,25.1158846 55.4687477,25.03125 55.921875,25.03125 C56.5052112,25.03125 57.0169249,25.1705715 57.4570312,25.4492188 C57.8971376,25.727866 58.2395821,26.1067684 58.484375,26.5859375 L57.625,27.078125 C57.4531241,26.7291649 57.2213556,26.4583343 56.9296875,26.265625 C56.6380194,26.0729157 56.2890645,25.9765625 55.8828125,25.9765625 C55.4661437,25.9765625 55.1341158,26.0755198 54.8867187,26.2734375 C54.6393217,26.4713552 54.515625,26.7317692 54.515625,27.0546875 C54.515625,27.3046888 54.5911451,27.5104159 54.7421875,27.671875 C54.8932299,27.8333341 55.0833322,27.9635412 55.3125,28.0625 C55.5416678,28.1614588 55.8567688,28.2734369 56.2578125,28.3984375 C56.7786484,28.5598966 57.2044254,28.7187492 57.5351562,28.875 C57.8658871,29.0312508 58.1471343,29.2630193 58.3789062,29.5703125 C58.6106782,29.8776057 58.7265625,30.2786434 58.7265625,30.7734375 C58.7265625,31.2838567 58.6015637,31.7187482 58.3515625,32.078125 C58.1015612,32.4375018 57.7721375,32.7070304 57.3632812,32.8867188 C56.954425,33.0664071 56.5156273,33.15625 56.046875,33.15625 C55.5729143,33.15625 55.1367207,33.0690113 54.7382812,32.8945312 Z" id="ventures"></path>
                </g>
            </g>
        </g>
    </g>
</svg>