<?xml version="1.0" encoding="UTF-8"?>
<svg width="1304px" height="950px" viewBox="0 0 1304 950" version="1.1" xmlns="http://www.w3.org/2000/svg" xmlns:xlink="http://www.w3.org/1999/xlink">
    <!-- Generator: Sketch 47.1 (45422) - http://www.bohemiancoding.com/sketch -->
    <title>mindanao</title>
    <desc>Created with Sketch.</desc>
    <defs></defs>
    <g id="Page-1" stroke="none" stroke-width="1" fill="none" fill-rule="evenodd">
        <g id="mindanao" transform="translate(-239.000000, -86.000000)">
            <path d="M474.791992,876.402588 C475.753906,874.198486 476.744141,872.638916 477.762695,871.723877 C477.598714,869.492269 478.21167,867.967367 479.712646,867.143799 C481.997803,867.943522 483.319987,867.745687 483.741211,866.918701 C487.522624,867.267008 487.347249,870.440837 483.491455,876.376709 C481.663411,877.309489 480.940918,878.329753 480.940918,879.254883 L480.908936,880.169922 L478.872314,880.169922 L477.9104,880.169922 L477.404541,879.243408 L476.809814,878.524902 L476.054199,878.041016 L475.258545,877.670654 L474.579346,876.783203 L474.579346,876.056152" id="Path-7" fill="#D8D8D8"></path>
            <polygon id="Path-8" fill="#D8D8D8" points="488.270752 873.19043 488.270752 869.259766 489.349609 868.924561 489.349609 867.361816 490.527344 866.442139 491.12793 865.541992 492.154785 864.266602 493.408203 864.011719 495.092041 864.011719 496.664062 864.266602 498.009277 865.856934 499.037109 866.850342 500.145996 868.601074 500.421143 869.259766 501.781982 869.531982 503.087646 869.531982 504.128662 869.531982 504.492188 870.980469 504.873535 872.258301 504.873535 873.788818 503.868652 874.35083 503.087646 874.35083 503.087646 875.964844 502.102295 876.339844 502.102295 877.809814 501.503906 878.350586 500.94043 878.647461 500.421143 879.244385 500.145996 879.848145 499.325684 880.335938 498.009277 880.335938 497.599121 880.705078 494.246094 880.335938 493.034912 879.244385 491.793945 879.244385 491.12793 877.463867 489.349609 876.632324 488.860596 875.258545 488.57959 874.35083"></polygon>
            <polyline id="Path-9" fill="#D8D8D8" points="493.288574 841.024658 488.121094 841.024658 487.288574 841.024658 487.288574 841.887939 487.403809 842.724854 486.421631 842.724854 486.421631 844.743652 485.201904 844.997314 485.201904 848.230225 485.201904 849.108398 487.060547 848.787598 487.852539 848.787598 488.169922 848.230225 490.1875 848.230225 491.317383 848.230225 491.317383 849.108398 493.672363 849.108398 494.547119 849.026367 495.153076 847.922119 495.945068 847.922119 496.208984 845.638428 496.208984 844.745117 496.208984 843.91626 496.93042 843.527344 496.575195 843.072754 495.945068 842.635742 495.945068 841.979248 493.03125 841.139404"></polyline>
            <polygon id="Path-10" fill="#D8D8D8" points="500.725586 841.851807 500.095459 841.851807 500.095459 838.731201 500.725586 838.731201 500.725586 833.870605 502.139893 833.870605 502.139893 832.727051 503.298096 832.727051 503.298096 832.074463 506.08374 832.074463 506.08374 833.213379 506.944336 833.213379 506.944336 834.358887 508.189941 834.358887 508.189941 835.096924 509.126465 835.096924 509.126465 840.148682 508.189941 840.148682 508.189941 840.986572 506.944336 840.986572 506.944336 841.851807 506.08374 841.851807 506.08374 842.838623 505.275635 842.838623 505.275635 843.73877 503.940918 843.73877 503.940918 842.838623 502.962158 843.165771 502.962158 843.73877 501.054932 843.73877 501.054932 842.838623"></polygon>
            <polygon id="Path-11" fill="#D8D8D8" points="525.200928 845.777832 526.47168 845.777832 530.802734 845.777832 530.802734 844.731201 531.764893 844.731201 531.764893 843.540527 534.071045 843.860596 534.071045 845.777832 534.071045 846.874268 533.169678 846.874268 533.169678 848.101807 532.058594 848.101807 532.058594 849.034912 531.27002 849.426025 529.308594 849.426025 527.31958 849.426025 526.713867 849.426025 526.013672 849.034912 526.013672 848.101807 524.731445 848.101807 524.119141 848.101807 524.119141 849.034912 522.97168 848.101807 521.961426 847.742188 521.961426 846.874268 520.711182 846.874268 520.711182 846.047852 520.094238 845.777832 520.094238 843.860596 521.061279 844.731201 521.061279 845.283936 521.502686 845.777832 521.961426 846.047852 522.97168 846.874268 523.478271 846.874268 524.731445 846.874268"></polygon>
            <polygon id="Path-12" fill="#D8D8D8" points="547.092773 820.888428 547.092773 818.06543 547.748047 818.06543 548.278076 817.401123 548.278076 815.503906 548.278076 814.874512 549.341309 814.874512 550.130127 815.503906 550.130127 816.15625 554.196533 816.15625 554.196533 817.401123 556.766357 817.401123 556.766357 818.470947 557.945068 818.470947 557.945068 821.823242 559.998047 822.080811 559.998047 820.888428 565.051758 820.888428 565.051758 821.823242 565.051758 822.080811 564.492432 822.080811 564.492432 822.795166 564.492432 823.325439 561.648682 823.325439 561.013916 823.325439 561.013916 824.186279 561.013916 824.669678 559.661621 824.669678 559.2146 824.669678 559.2146 825.381592 559.661621 825.768311 557.294922 825.381592 557.294922 826.343994 554.559326 826.343994 554.559326 827.843506 551.526367 827.843506 551.526367 828.506104 549.341309 828.506104 548.278076 828.506104 548.278076 827.43457 547.092773 827.43457 547.092773 826.654053 546.238037 826.343994 546.238037 824.669678 545.484131 824.669678 545.484131 822.080811 545.484131 820.888428"></polygon>
            <polygon id="Path-13" fill="#D8D8D8" points="499.077148 794.956055 500.148926 794.956055 500.148926 792.822998 500.98291 792.822998 500.98291 791.050537 502.091797 791.050537 502.091797 787.474609 502.726074 787.474609 502.726074 786.074951 504.920898 786.074951 505.202148 782.812988 507.945801 782.812988 507.945801 781.544922 510.704834 781.544922 510.704834 779.893799 513.721191 779.893799 513.721191 778.793213 514.898682 778.793213 519.858154 778.793213 519.858154 777.513672 521.755371 777.513672 521.755371 776.011475 523.86084 776.011475 523.86084 774.57251 524.969238 774.57251 524.969238 771.773926 524.969238 769.791748 527.945557 770.077148 527.945557 771.773926 531.794189 771.773926 531.794189 770.077148 536.175537 770.077148 536.175537 771.374512 538.961914 771.374512 538.961914 770.077148 545.209229 770.077148 545.209229 771.773926 546.548828 771.773926 546.548828 772.732666 549.816895 772.732666 549.816895 773.412842 551.774902 773.412842 551.774902 775.404541 552.920898 775.404541 552.920898 776.299316 552.920898 777.513672 554.385986 777.513672 554.385986 778.793213 555.662598 778.793213 555.662598 784.357666 556.663086 784.357666 558.03418 784.357666 558.03418 786.074951 560.093994 786.074951 560.093994 787.474609 560.357666 788.608887 563.382568 788.608887 563.382568 786.074951 564.454102 786.074951 564.454102 784.871094 566.48877 784.871094 566.48877 783.79834 576.868164 783.79834 577.582275 783.79834 577.582275 785.342896 579.587891 785.342896 579.587891 786.629883 582.509521 786.629883 582.509521 784.871094 585.752441 784.871094 585.752441 786.074951 587.625 786.074951 587.625 788.131104 588.83374 787.871094 588.83374 786.629883 589.246094 784.871094 590.511475 784.871094 592.821289 785.342896 595.5 785.342896 595.894043 787.207031 597.548096 787.474609 599.069824 788.608887 599.570801 790.637939 600.719238 791.050537 600.719238 795.615723 599.570801 795.942871 599.570801 797.361572 598.425293 797.361572 598.425293 798.418213 594.250977 798.418213 594.250977 799.182861 591.510254 799.182861 591.510254 801.247314 592.821289 801.849609 592.821289 803.354248 592.821289 805.255859 589.246094 805.507324 588.83374 805.255859 588.575439 803.354248 587.625 802.423584 586.44165 802.423584 585.752441 803.68335 583.231201 805.861328 582.018555 806.38501 581.324463 806.38501 581.324463 807.316162 579.587891 807.316162 578.919189 808.626465 578.433105 809.405762 577.285889 810.038574 576.358154 810.634766 576.358154 812.869873 575.648682 812.869873 575.648682 814.741455 572.339355 814.741455 572.339355 813.196533 572.339355 812.274414 571.352295 811.732422 571.352295 810.634766 569.268066 810.038574 568.643066 808.626465 565.953857 808.244385 565.539795 807.316162 564.454102 806.802246 564.454102 804.837646 565.953857 804.837646 565.953857 803.68335 566.835693 803.354248 567.201416 802.423584 565.953857 802.137939 565.228516 800.894043 564.871582 800.043945 564.871582 799.182861 564.008545 798.694824 563.382568 799.587646 560.093994 799.182861 560.093994 798.418213 558.798828 798.418213 558.798828 797.361572 556.991211 797.361572 556.991211 799.587646 553.772949 799.587646 553.772949 798.418213 552.337402 798.133301 552.337402 800.894043 550.37793 802.423584 547.17041 804.837646 544.432617 805.255859 541.700195 806.38501 537.968994 806.38501 537.714355 808.626465 537.968994 810.290039 533.773682 810.038574 531.11792 809.741455 531.794189 808.244385 530.82251 806.38501 530.00415 805.255859 528.932373 803.68335 528.445312 802.423584 526.614014 802.423584 523.86084 802.137939 522.69873 802.423584 520.617188 803.68335 519.858154 803.68335 517.9021 804.837646 515.526855 806.38501 513.276611 806.802246 512.08667 807.316162 510.704834 807.316162 506.322266 807.316162 505.6875 806.38501 503.992676 804.837646 503.051758 804.080078 500.148926 803.354248 499.46582 801.849609 499.077148 800.894043"></polygon>
            <polygon id="Path-14" fill="#D8D8D8" points="591.198975 780.89917 592.358154 780.040771 593.515869 778.649414 595.086426 777.496582 596.605225 776.946289 597.200928 777.23584 597.735596 777.887695 599.25 777.887695 599.25 780.040771 600.562744 780.040771 600.562744 782.7229 600.562744 783.779785 598.708252 783.779785 597.735596 784.230469 595.455322 783.779785 592.358154 783.352051 591.198975 782.7229 591.198975 781.341797"></polygon>
            <polygon id="Path-15" fill="#D8D8D8" points="623.563477 798.241211 623.563477 793.59375 626.348633 793.59375 626.348633 791.845703 628.944336 791.845703 628.944336 795.043457 631.084961 796.250977 628.944336 799.344727 623.563477 799.344727"></polygon>
            <polygon id="Path-16" fill="#D8D8D8" points="643.131836 786.082031 646.644531 783.436523 646.644531 779.807617 650.040039 779.807617 651.586914 779.807617 651.586914 782.944824 650.040039 783.436523 648.807617 786.082031 648.807617 788.602539 646.644531 788.602539 644.697266 788.602539 643.131836 790.052734 642.046875 788.602539 639.608398 787.576172"></polygon>
            <polygon id="Path-17" fill="#D8D8D8" points="660.583984 773.181641 662.211914 770.273438 663.662109 771.727539 665.387695 774.857422 668.216797 776.113281 669.59668 777.93457 671.996094 780.085938 675.041016 781.103516 677.951172 782.675781 680.449219 781.103516 685.139648 780.085938 687.458984 777.93457 691.386719 776.474609 695.301758 776.113281 695.301758 777.93457 693.295898 779.017578 689.62207 781.103516 687.458984 782.675781 685.139648 784.519531 685.139648 786.577148 679.083984 786.577148 676.296875 787.737305 675.041016 786.577148 673.071289 782.675781 669.59668 782.675781 668.216797 781.103516 667.148438 779.005371 665.387695 779.005371 663.662109 776.474609 660.583984 776.113281"></polygon>
            <polygon id="Path-18" fill="#D8D8D8" points="669.249023 760.879883 666.807617 760.879883 668.02832 756.702148 669.249023 755.237305 671.152344 756.702148 671.152344 758.058594 672.40918 759.805664 676.383789 760.879883 676.383789 763.78418 675.204102 765.621094 671.595703 765.621094 669.249023 763.78418 671.152344 763.78418"></polygon>
            <polygon id="Path-19" fill="#D8D8D8" points="704.441406 735.118164 702.525391 732.492188 696.507812 732.492188 696.507812 733.805176 698.467773 733.805176 700.474609 735.118164"></polygon>
            <polygon id="Path-20" fill="#D8D8D8" points="699.602539 726.467773 696.923828 726.467773 695.556641 725.099609 694.189453 725.099609 696.923828 723.49707 700.706055 723.49707 702.183594 724.982422"></polygon>
            <polygon id="Path-21" fill="#D8D8D8" points="666.889648 673.461914 668.420898 668.735352 671.925781 664.678711 676.332031 664.678711 681.195312 664.678711 682.355469 666.044922 686.296875 666.044922 687.84375 663.426758 691.071289 663.426758 692.833984 660.353516 695.925781 659.126953 695.925781 657.049805 694.141602 655.642578 694.141602 652.576172 698.175781 651.094727 702.799805 651.094727 701.02832 652.576172 701.02832 655.642578 706.161133 652.576172 714.913086 652.576172 717.967773 652.576172 719.00293 653.855469 721.583008 655.642578 723.253906 655.642578 729.126953 655.642578 729.126953 662.27832 731.30957 663.426758 734.28418 663.426758 737.586914 664.678711 744.128906 664.678711 747.87207 664.678711 751.311523 667.367188 754.962891 668.735352 759.803711 668.735352 763.3125 671.355469 763.3125 676.077148 762.124023 677.609375 759.803711 678.961914 753.53418 680.262695 747.87207 678.961914 744.128906 678.961914 744.128906 683.649414 741.466797 689.305664 741.466797 692.775391 741.466797 696.438477 741.466797 700.418945 739.81543 703.106445 736.105469 705.000977 727.635742 705.000977 721.583008 708.496094 712.855469 708.496094 712.855469 710.798828 709.104492 712.053711 701.02832 712.053711 698.175781 712.053711 695.925781 712.053711 695.925781 708.496094 692.833984 707.416016 691.071289 707.416016 687.84375 703.106445 684.344727 700.418945 681.195312 696.438477 681.195312 692.775391 681.195312 689.305664 681.195312 686.267578 679.036133 683.649414 676.332031 681.574219 671.925781 681.574219 670.110352 678.961914 668.420898 678.961914 666.889648 676.077148"></polygon>
            <polyline id="Path-22" fill="#D8D8D8" points="634.710938 674.203125 634.710938 667.179688 633.033203 664.049805 631.40918 662.217773 631.40918 664.049805 628.876953 666.123047 626.533203 668.210449 626.533203 671.955078 628.876953 674.203125 628.876953 669.46582 630.62207 669.46582 631.40918 674.203125 633.033203 677.038086 634.710938 675.768555"></polyline>
            <path d="M241.932617,1035.31836 C243.47168,1035.8099 246.170898,1029.38477 250.030273,1016.04297 C252.0279,1009.1372 247.607452,1003.66128 245.723122,998.37207 C244.55235,995.085778 242.602651,990.651207 239.874023,985.068359 C238.687174,988.306641 239.775391,995.236328 243.138672,1005.85742 C245.055934,1011.91205 243.668591,1017.73145 243.138672,1023.26562 C242.872225,1026.04825 242.470207,1030.06583 241.932617,1035.31836 Z" id="Path-23" fill="#D8D8D8"></path>
            <polygon id="Path-24" fill="#D8D8D8" points="316.564453 1007.12695 307.617188 1007.12695 304.803711 1005.27441 304.803711 1003.7832 308.794922 1003.7832 310.684082 1005.27441"></polygon>
            <polygon id="Path-25" fill="#D8D8D8" points="306.292969 997.276367 313.516602 995.095703 312.402344 990.84668 312.402344 988.09668 309.904785 985.256836 309.904785 988.09668 306.292969 988.09668 306.292969 985.256836 301.93457 985.256836 301.93457 988.09668 301.93457 991.266602 301.93457 995.095703"></polygon>
            <polygon id="Path-26" fill="#D8D8D8" points="340.254883 978.449219 342.629883 973.170898 344.660156 973.170898 344.660156 969.419922 342.45752 969.419922 340.254883 969.419922 338.879883 973.170898 338.879883 976.306641"></polygon>
            <polygon id="Path-27" fill="#D8D8D8" points="301.199219 962.472656 297.244141 963.710938 299.22168 966.914062 295.851562 966.914062 292.774414 966.914062 292.774414 960.789062 295.851562 953.623047 301.199219 946.794922 304.610352 946.794922 304.610352 949.731445 304.610352 951.608398 304.610352 953.623047 305.65625 956.854492 305.65625 958.55957 304.610352 960.789062 301.199219 959.716797"></polygon>
            <polygon id="Path-28" fill="#D8D8D8" points="306.811523 943.797852 306.811523 947.811523 308.134766 951.328125 307.473145 953.165039 306.811523 954.730469 307.473145 956.470703 308.134766 959.545898 312.337891 959.545898 317.930664 956.470703 320.480469 958.520508 321.902344 956.470703 325.6875 954.730469 327.717773 956.470703 330.258789 956.470703 330.258789 954.730469 332.271484 956.470703 335.081055 951.671875 337.610352 947.811523 338.782227 943.797852 339.94043 941.536133 343.494141 940.216797 346.197266 938.06543 349.152344 936.866211 349.152344 940.216797 347.527344 941.536133 353.044922 941.536133 353.044922 945.419922 356.992188 941.536133 358.423828 940.216797 361.615234 936.866211 361.615234 934.854492 361.615234 931.193359 364.761719 932.918945 364.761719 934.854492 366.677734 938.06543 366.677734 940.216797 369.518555 938.06543 370.830078 936.866211 372.168945 938.06543 372.168945 940.216797 369.518555 941.536133 370.830078 943.797852 377.641602 947.811523 379.444336 949.063477 381.303711 943.797852 381.303711 936.866211 383.775391 934.854492 383.775391 931.193359 386.00293 925.72168 386.00293 921.52832 386.00293 919.37207 381.303711 919.37207 381.303711 917.332031 379.444336 917.332031 379.444336 915.194336 382.442383 915.194336 382.442383 913.356445 381.303711 909.358398 379.444336 906.450195 375.441406 904.126953 370.830078 904.126953 369.518555 906.450195 366.677734 909.358398 363.423828 910.637695 359.576172 913.356445 356.992188 917.332031 355.069336 917.332031 355.069336 919.37207 355.069336 923.057617 353.044922 923.057617 353.044922 921.52832 350.720703 923.057617 349.152344 923.057617 347.527344 925.72168 346.197266 927.553711 346.197266 929.293945 339.94043 929.293945 337.610352 925.72168 335.081055 929.293945 333.473633 929.293945 333.473633 931.836426 332.271484 932.918945 330.258789 934.854492 327.717773 934.854492 327.717773 936.866211 323.229492 936.866211 321.902344 940.216797 317.930664 941.536133 314.006836 941.536133 308.134766 941.536133"></polygon>
            <polyline id="Path-29" fill="#D8D8D8" points="385.986328 937.530273 385.986328 932.030273 387.256836 930.291016 387.256836 926.751953 389.803711 923.392578 392.444336 925.6875 392.444336 928.228516 392.444336 930.461426 394.939453 932.030273 394.939453 934.81543 394.939453 937.530273 392.444336 937.530273 389.803711 939.441406 387.256836 937.530273"></polyline>
            <polygon id="Path-30" fill="#D8D8D8" points="386.342773 959.381836 390.879883 955.398438 394.90332 953.759766 397.509766 950.72168 400.354492 948.211914 402.973633 946.308594 402.973633 943.291992 401.695312 941.739258 397.509766 941.739258 397.509766 946.308594 396.061523 948.211914 393.499023 946.308594 393.499023 948.211914 388.880859 952.092773 387.570312 955.398438 385.229492 955.398438 385.229492 957.598633"></polygon>
            <polygon id="Path-31" fill="#D8D8D8" points="399.469727 930.130859 401.082031 926.726562 403.730469 923.09082 406.899414 923.09082 406.899414 926.61084 405.612305 930.130859 403.730469 932.283203 403.18457 935.414062 403.18457 937.291016 399.469727 935.414062 399.469727 932.283203"></polygon>
            <polygon id="Path-32" fill="#D8D8D8" points="422.016602 761.233398 418.849609 761.233398 416.980469 761.233398 416.980469 757.62207 419.498535 756.56543 422.016602 755.136719 423.511719 757.62207"></polygon>
            <polygon id="Path-33" fill="#D8D8D8" points="430.200195 741.452148 426.608398 741.452148 426.608398 735.475586 430.200195 736.662109 430.200195 738.463867 433.850586 738.463867 433.850586 735.475586 436.125977 733.477539 436.125977 729.972656 436.125977 724.147461 438.50293 721.549805 441.483398 717.181641 445.28125 717.181641 448.362305 714.209961 448.362305 721.549805 448.362305 725.164062 447.289062 727.831055 447.289062 729.972656 445.28125 736.662109 445.28125 739.595703 443.651367 741.452148 441.483398 743.28418 439.710938 743.28418 437.485352 744.882812 436.125977 741.452148 433.850586 741.452148"></polygon>
            <polygon id="Path-34" fill="#D8D8D8" points="454.65332 740.768555 454.65332 738.799805 454.65332 736.733398 456.543945 736.733398 457.56543 734.882812 459.235352 736.733398 459.235352 738.799805 457.56543 740.768555"></polygon>
            <polyline id="Path-35" fill="#D8D8D8" points="461.673828 712.12793 463.538086 712.12793 465.236328 709.305664 467.40332 707.12207 470.609375 707.12207 470.609375 715.923828 467.40332 715.923828 463.538086 714.070312"></polyline>
            <polygon id="Path-39" fill="#D8D8D8" points="741.242676 617.544922 742.263672 614.918945 744.584473 614.918945 745.82666 614.918945 747.278809 613.208984 747.278809 609.503418 748.548828 611.036133 751.59375 612.599609 753.61377 611.036133 754.845703 608.830078 754.845703 606.529297 753.61377 605.539551 752.436035 604.800293 749.87207 605.539551 748.044189 606.529297 745.82666 607.430664 743.631348 609.503418 742.263672 609.503418 741.242676 612.078125 739.760742 613.208984 738.115234 613.208984 737.382812 614.918945 738.115234 616.089844 738.75 617.544922"></polygon>
            <polygon id="Path-40" fill="#D8D8D8" points="874.089355 437.112793 874.089355 449.61084 879.399414 449.61084 879.399414 450.824707 887.29834 450.824707 887.29834 451.820801 895.357422 451.820801 895.357422 452.957031 901.451172 452.957031 901.451172 453.838867 905.146973 453.838867 905.146973 457.675293 906.477051 458.887695 906.477051 464.557129 906.477051 467.280762 907.407715 469.496094 907.407715 470.946289 908.995605 472.188477 911.617188 473.055176 912.614746 476.252441 911.617188 479.515625 910.643066 481.708008 910.643066 483.598633 912.614746 485.068359 915.553223 486.253418 919.439453 487.000977 918.185059 488.207031 918.185059 489.449219 919.439453 490.393555 921.829102 491.453613 921.829102 494.642578 921.829102 496.347168 919.439453 498.05957 919.439453 498.881348 917.087402 498.05957 911.617188 498.05957 910.643066 498.881348 910.643066 500.423828 908.995605 500.423828 908.479004 501.659668 905.84082 501.659668 905.84082 504.173828 905.146973 504.173828 905.146973 505.334961 906.477051 506.086426 906.477051 508.399414 907.962402 508.399414 907.962402 510.418457 910.643066 510.418457 910.643066 511.658203 911.617188 512.824707 915.553223 513.553711 915.553223 515.319824 917.087402 515.319824 917.087402 517.354492 917.623047 518.044922 918.185059 518.818359 920.168457 518.044922 921.829102 515.867188 921.006348 513.553711 920.168457 513.553711 920.168457 510.418457 921.006348 510.418457 924.602051 509.74707 924.602051 508.399414 926.285645 507.63623 926.80957 505.334961 930.58252 506.086426 930.58252 508.399414 940.040039 507.63623 940.040039 510.418457 938.927246 511.658203 938.927246 512.824707 938.325684 517.354492 938.927246 519.458008 941.092285 520.832031 944.375977 522.277344 945.181152 524.929688 945.181152 527.344727 946.042969 528.703125 950.265625 528.703125 951.803223 530.468262 954.311523 530.468262 955.117188 532.554199 955.619141 535.824707 957.657227 536.692383 958.629883 538.327148 962.276367 537.504395 963.544434 535.824707 966.855469 535.824707 966.855469 536.692383 969.520996 535.824707 968.350098 531.563477 966.855469 531.03418 966.189453 528.703125 966.189453 526.456543 967.762207 526.456543 968.350098 523.505859 961.617188 518.044922 960.077148 518.044922 960.077148 518.818359 958.629883 518.818359 957.657227 515.867188 955.619141 514.729004 955.117188 512.824707 955.117188 510.418457 956.496094 509.74707 955.619141 507.63623 952.556641 506.668945 948.04834 502.415039 948.04834 500.942383 952.556641 497.009277 953.118164 498.881348 954.311523 500.423828 956.496094 500.423828 956.496094 497.009277 955.117188 495.637695 955.117188 492.888672 956.496094 491.453613 960.077148 491.453613 963.544434 490.393555 967.762207 488.887207 972.875977 486.253418 972.875977 480.487305 973.808105 470.946289 972.875977 469.496094 970.399414 469.496094 969.520996 468.171875 966.855469 467.280762 964.506836 465.734375 963.544434 462.600098 963.544434 458.887695 965.44873 455.56543 966.855469 452.37793 970.399414 455.56543 975.1875 452.957031 978.963867 450.244141 980.553223 448.798828 984.318848 447.879395 986.839355 447.297852 991.282227 447.879395 993.418457 449.61084 997.388184 450.824707 999.09375 451.820801 1000.34961 450.824707 1001.13623 445.526855 1004.43799 443.057129 1007.01025 438.938965 1006.11084 433.964355 1007.67773 431.078125 1007.01025 429.113281 1005.13574 427.245605 1004.43799 424.552246 1005.13574 422.161133 1006.11084 420.772949 1006.11084 419.463867 992.081055 413.737305 989.154297 412.495117 989.154297 403.922363 986.839355 395.11377 986.839355 388.973633 986.038086 383.34375 956.496094 383.34375 948.04834 378.51416 924.602051 378.51416 925.257812 403.922363 921.006348 408.565918 921.006348 422.161133 918.185059 423.70752 914.186035 422.161133 911.617188 420.772949 907.962402 420.772949 907.962402 422.674316 904.193359 422.674316 884.473633 437.112793 884.473633 438.938965 879.399414 438.308594 879.399414 437.112793"></polygon>
            <polygon id="Path-41" fill="#D8D8D8" points="988.083984 309.044922 988.083984 386.682617 989.546875 390.350586 989.546875 392.543945 989.546875 395.761719 991.87793 400.944336 991.87793 406.026367 991.87793 407.697266 991.87793 410.410156 993.827148 411.570312 998.879883 412.827148 1002.09766 414.083984 1005.24316 414.083984 1005.24316 415.451172 1012.44238 411.570312 1016.51172 410.410156 1019.05176 411.570312 1023.05176 408.788086 1031.07031 399.905273 1039.27441 395.761719 1044.19727 390.350586 1045.2793 384.331055 1042.83008 378.958008 1041.62695 373.833984 1041.62695 369.834961 1041.62695 362.248047 1042.83008 356.388672 1042.83008 348.132812 1039.27441 341.591797 1036.7666 336.728516 1036.7666 332.898438 1031.07031 326.573242 1031.07031 322.477539 1028.65918 315.754883 1023.05176 312.294922 1023.05176 309.044922 1019.05176 308.039062 1015.27441 305.317383 1013.82812 305.317383 1010.12305 303.209961 1002.09766 303.209961 1000.07617 301.020508 996.291016 301.020508 993.827148 306.389648 989.546875 308.039062"></polygon>
            <polygon id="Path-42" fill="#D8D8D8" points="1003.39844 450.362305 1003.39844 447.522461 1007.57812 442.637695 1010.67871 436.443359 1010.67871 429.783203 1010.67871 425.97168 1016.54199 423.964844 1022.03223 420.123047 1026.4502 416.775391 1031.23047 410.611328 1038.83496 404.335938 1043.36426 401.887695 1046.10742 401.887695 1049.88379 399.529297 1051.19531 398.095703 1053.83301 396.044922 1057.36719 391.253906 1069.16504 385.920898 1082.11719 384.849609 1095.2041 385.920898 1104.27832 384.849609 1110.70703 380.756836 1116.27637 370.094727 1116.27637 366.174805 1150.70898 366.174805 1151.78613 363.207031 1154.51855 364.725586 1154.51855 366.174805 1159.81348 367.291992 1162.57227 370.094727 1164.00488 372.987305 1167.58984 375.84082 1170.69531 379.15332 1171.9502 388.173828 1171.9502 394.800781 1167.58984 396.044922 1164.00488 398.095703 1159.81348 396.044922 1150.70898 393.321289 1142.84961 389.18457 1136.5791 388.173828 1130.10938 383.120117 1126.69043 379.15332 1119.69434 379.15332 1119.69434 404.335938 1116.27637 406.784668 1113.94824 409.152344 1110.70703 410.611328 1104.27832 410.611328 1098.26367 413.243164 1096.30371 416.775391 1093.36133 420.123047 1091.88672 421.19043 1091.88672 423.964844 1091.88672 429.783203 1090.12988 434.223633 1088.58789 438.719727 1082.11719 438.719727 1072.10254 438.719727 1070.61621 438.719727 1070.61621 444.049805 1072.10254 447.522461 1073.89551 451.835938 1072.10254 455.020508 1070.61621 460.475586 1067.13477 464.511719 1067.13477 470.15332 1064.2207 472.84668 1058.95605 472.84668 1047.14844 468.994141 1038.83496 466.441406 1036.74805 470.15332 1035.04688 472.84668 1032.23633 472.84668 1029.27539 474.557617 1026.4502 474.557617 1026.4502 470.15332 1024.20215 468.994141 1022.03223 468.994141 1020.66602 461.864258 1016.54199 457.84668 1014.89844 457.84668 1013.10645 457.84668 1011.86426 453.376953 1007.57812 451.835938 1004.58398 451.835938"></polygon>
            <path d="M1115.06738,364.050781 L1115.06738,360.493164 L1115.06738,355.696289 L1118.9502,350.731445 L1122.78223,344.716797 L1122.78223,332.488281 L1125.03516,325.637695 L1125.03516,321.852539 L1126.20508,320.379883 L1129.50293,320.379883 L1134.79785,315.537109 L1140.38867,310.866211 L1145.86426,310.866211 L1151.71582,306.223633 L1156.02441,307.598633 L1153.11133,310.866211 L1153.11133,312.704102 L1157.72656,312.704102 L1159.90527,315.537109 L1164.89648,315.537109 L1166.46484,318.994141 L1168.86621,320.379883 L1171.48535,320.379883 L1173.85449,323.157227 L1178.51855,323.157227 L1184.37207,325.637695 L1190.63867,327.098633 L1189.59375,331.142578 L1192.6123,332.488281 L1197.13672,332.488281 L1205.47461,329.621094 L1205.47461,321.852539 L1205.47461,315.537109 L1207.60254,312.704102 L1207.60254,306.223633 L1208.66016,302.087891 L1203.63672,299.249023 L1205.47461,290.484375 L1208.66016,289.21875 L1210.45117,289.21875 L1210.45117,279.74707 L1210.45117,274.749023 L1211.55762,270.085938 L1211.55762,262.193359 L1213.63477,249.09375 L1210.45117,249.09375 L1208.66016,243.09375 L1215.14941,237.704102 L1221.42578,236.200195 L1229.64062,237.704102 L1236.1123,241.646484 L1243.60449,243.09375 L1247.05566,249.09375 L1251.51465,249.09375 L1255.82031,251.563477 L1257.27441,255.936523 L1259.61523,259.884766 L1262.37793,264.428711 L1264.5293,266.828125 L1273.75977,268.987305 L1279.15723,264.428711 L1284.61914,259.884766 L1284.61914,250.148438 L1284.61914,239.30957 L1282.46777,234.585938 L1284.61914,228.648438 L1284.61914,222.087891 L1287.25879,216.28125 L1288.75195,222.087891 L1290.14941,228.648438 L1290.14941,234.585938 L1291.76465,241.646484 L1291.76465,249.09375 L1291.76465,254.580078 L1293.34473,255.936523 L1294.98438,259.884766 L1294.98438,262.193359 L1294.98438,264.428711 L1294.98438,271.885742 L1294.98438,279.74707 L1296.25684,312.704102 L1227.07031,312.704102 L1217.07031,331.142578 L1217.07031,343.072266 L1181.20605,344.716797 L1176.96289,364.050781 L1176.96289,370.271484 L1173.85449,375.743164 L1173.85449,377.786133 L1166.46484,372.257812 L1166.46484,370.271484 L1162.89453,367.009766 L1161.05762,365.758789 L1158.79688,364.050781 C1156.94857,364.050781 1156.02441,364.050781 1156.02441,364.050781 C1156.02441,364.050781 1155.05339,362.864909 1153.11133,360.493164 L1149.83398,360.493164 L1148.4707,364.050781 L1116.75781,364.050781" id="Path-43" fill="#2E53B4"></path>
            <polygon id="Path-44" fill="#D8D8D8" points="1165.18945 400.296387 1168.8418 399.510254 1172.20947 398.397949 1173.34863 395.61377 1174.3877 391.592285 1174.3877 382.005859 1176.51514 378.429688 1176.51514 374.616211 1179.83984 368.368652 1180.66357 356.529785 1181.94971 350.925781 1182.68848 347.041992 1219.52051 347.041992 1219.00781 333.70166 1228.37695 314.960449 1295.8291 315.477539 1295.8291 341.687988 1302.85352 361.642578 1306.16016 361.642578 1314.06201 372.935547 1315.01172 375.436523 1315.01172 378.429688 1318.27393 378.429688 1318.80225 381.322266 1318.27393 382.957031 1317.38037 383.784668 1317.38037 388.266602 1319.51514 391.592285 1320.72168 395.61377 1320.72168 399.510254 1320.72168 404.402832 1320.72168 407.601074 1322.67676 409.958008 1323.37988 411.927246 1322.13232 415.00293 1322.13232 417.743652 1322.13232 420.595703 1323.37988 424.861816 1323.37988 427.386719 1325.81104 431.104004 1325.81104 434.855469 1328.64844 438.816895 1329.75293 456.113281 1333.57373 463.866211 1333.57373 476.055176 1331.06055 479.416992 1331.06055 482.834961 1331.94873 484.914551 1331.94873 487.698242 1331.06055 489.016113 1328.64844 489.574219 1324.80322 489.574219 1319.51514 489.574219 1314.06201 489.574219 1310.7417 489.574219 1308.85889 486.10498 1306.16016 486.613281 1305.47021 487.698242 1304.29053 488.311035 1298.97363 489.016113 1298.97363 498.169922 1292.45166 498.169922 1292.45166 501.535645 1288.27979 501.535645 1286.71631 501.535645 1286.71631 504.486328 1283.88281 505.140625 1283.88281 509.595703 1282.48389 509.595703 1282.48389 514.442383 1282.48389 519.624023 1280.84863 519.624023 1274.66455 523.995605 1265.55127 524.533203 1264.91699 526.657227 1260.31592 533.268066 1249.38159 533.830078 1241.15137 528.864746 1239.28223 527.794434 1238.17432 529.506348 1233.60986 529.506348 1231.98242 527.794434 1227.41553 527.794434 1225.38184 524.533203 1224.72168 518.901367 1223.04346 516.611328 1218.37354 516.611328 1218.37354 517.617676 1216.09863 517.617676 1220.71826 509.595703 1220.71826 500.462402 1219.52051 498.169922 1217.86035 495.478516 1216.09863 493.361328 1210.48291 487.698242 1208.65967 487.698242 1208.65967 482.094238 1204.62354 477.506348 1204.62354 476.055176 1205.48438 475.112305 1204.62354 472.966797 1191.15625 453.832031 1187.55371 453.832031 1182.68848 447.814941 1183.65137 446.625977 1182.68848 443.708496 1180.66357 441.101562 1179.83984 438.816895 1178.64746 436.620117 1175.25 430.405273 1172.20947 424.395264 1171.26367 418.54248 1170.27686 412.71582 1168.8418 409.958008 1167.57568 405.98584 1165.18945 403.20752 1165.18945 401.118652"></polygon>
            <polygon id="Path-45" fill="#D8D8D8" points="1211.17773 223.894531 1211.17773 217.982422 1214.51953 217.982422 1214.51953 214.076172 1214.51953 207.037109 1206.47461 190.550781 1199.0625 187.009766 1185.125 190.550781 1185.125 195.898438 1185.125 205.452148 1188.92773 210.814453 1193.7168 217.982422 1199.0625 217.982422 1203.74609 217.982422"></polygon>
            <polygon id="Path-46" fill="#D8D8D8" points="1038.698 468.755859 1038.698 471.832275 1036.63037 473.473633 1035.12207 474.394043 1034.07935 475.110107 1035.12207 475.686279 1037.33887 476.078613 1041.81812 476.078613 1046.60986 475.686279 1049.75806 475.686279 1052.09351 477.40332 1055.56445 477.769775 1059.20044 480.356934 1062.93628 481.96875 1063.89819 482.869141 1063.89819 485.36499 1063.89819 486.168945 1066.14844 486.546631 1069.19824 486.168945 1071.47656 486.168945 1088.54785 509.961426 1091.59399 516.402344 1093.83276 518.933594 1094.98218 520.041992 1093.53296 521.306152 1092.26514 521.618896 1092.26514 522.356934 1093.00293 523.418945 1094.98218 524.271484 1096.72266 524.834717 1097.92651 525.445312 1099.05737 526.817383 1099.37549 528.592773 1101.28638 529.44165 1102.83374 526.817383 1102.83374 524.271484 1105.21948 522.356934 1116.41699 508.093018 1125.52783 504.283936 1133.97754 500.572021 1147.2478 488.234375 1149.87769 484.961914 1152.51343 484.961914 1157.52075 480.356934 1170.58765 480.101074 1180.67114 487.449707 1184.7373 488.234375 1186.04565 489.291992 1191.80811 485.36499 1193.25854 484.67041 1197.89551 484.67041 1200.18433 484.67041 1202.052 487.449707 1205.31714 487.764648 1207.40308 487.018799 1206.41431 484.363525 1202.052 479.108398 1201.6875 472.617188 1191.02734 459.308105 1189.96582 455.997803 1186.04565 455.997803 1180.28052 448.020996 1181.13306 446.708496 1181.13306 444.532227 1178.65527 442.250732 1178.65527 439.45459 1170.58765 428.64209 1170.58765 425.388672 1168.33081 421.060303 1168.00928 414.067871 1163.1084 403.681885 1161.76172 400.515625 1157.86157 398.778809 1148.43506 394.210449 1140.62256 391.272949 1130.8811 387.46167 1126.86646 382.28833 1121.3208 382.28833 1121.3208 406.969238 1119.67627 407.578857 1114.9126 413.406494 1113.15405 414.067871 1105.50537 413.707031 1097.51245 417.412598 1096.15527 418.552246 1095.38599 420.653564 1094.51416 421.060303 1093.53296 421.936768 1094.51416 423.867432 1094.51416 426.410889 1094.51416 431.353516 1089.54639 440.421875 1074.02515 440.750977 1072.73755 440.750977 1072.73755 442.644043 1074.93018 445.196289 1076.14111 446.708496 1076.14111 452.004883 1075.72461 456.700928 1077.12695 457.298584 1078.82324 457.298584 1079.99316 458.93042 1079.99316 462.954834 1078.06299 462.954834 1076.76587 461.559814 1075.26978 461.954834 1073.75 459.308105 1072.73755 459.308105 1070.49072 462.954834 1070.03247 464.606445 1069.19824 465.705078 1068.94556 467.372559 1068.94556 468.755859 1070.03247 469.138672 1070.03247 473.115967 1067.62134 475.686279 1066.14844 476.427002 1063.64355 476.885742 1061.15771 476.078613 1053.60205 473.115967 1044.97021 470.503906 1042.12573 469.721436 1041.33105 468.165283 1039.35156 468.165283"></polygon>
            <polygon id="Path-47" fill="#D8D8D8" points="1339.8916 152.701172 1338.43066 145.630859 1338.43066 142.09375 1339.16113 139.726562 1341.52051 139.726562 1348.62695 139.726562 1351.5918 139.726562 1351.5918 142.09375 1353.42676 146.213867 1353.42676 149.405273 1354.60352 150.837891 1361.62305 152.701172 1370.94434 154.388672 1378.07227 154.388672 1381.35352 157.310547 1386.19238 159.507812 1387.29688 161.647461 1389.77344 165.611328 1389.77344 171.979492 1417.20312 145.630859 1411.0752 145.630859 1409.5127 144.447266 1409.5127 140.757812 1408.28809 137.989258 1400.5918 135.124023 1395.4375 135.124023 1391.43164 135.124023 1389.77344 133.491211 1384.9043 131.525391 1383.03125 127.875977 1377.81689 126.433594 1374.40137 126.433594 1370.94434 126.433594 1360.22266 120.079102 1361.62305 113.977539 1360.22266 108.049805 1362.84375 101.847656 1360.22266 101.847656 1356.30859 101.847656 1354.60352 98.7548828 1354.60352 96.625 1351.5918 93.4873047 1350.09863 91.4072266 1348.62695 91.4072266 1346.98438 93.4873047 1346.98438 96.625 1343.96777 95.3535156 1341.52051 91.4072266 1338.43066 89.1582031 1334.97461 89.1582031 1334.97461 86.7216797 1330.35059 86.7216797 1330.35059 91.4072266 1326.6084 93.4873047 1325.43652 95.3535156 1323.2207 98.7548828 1323.2207 113.977539 1323.2207 118.694336 1328.23633 135.124023 1328.23633 139.726562 1328.23633 142.09375 1331.58691 147.382812 1331.58691 150.837891 1331.58691 152.701172 1334.97461 154.388672"></polygon>
            <path d="M1298.25293,302.166016 L1333.52246,302.166016 L1343.48633,295.369629 L1377.39355,294.660156 L1377.39355,288.736328 L1375.77441,285.818848 L1372.29102,271.953613 L1377.39355,264.339844 L1377.39355,252.819824 L1382.81104,238.530273 L1391.44531,225.405762 L1391.44531,218.3125 L1395.04736,206.030273 L1393.16162,198.07373 L1400.14697,206.030273 L1405.3501,211.924805 L1409.32861,216.826172 L1412.12061,222.36084 L1414.34082,226.642578 L1414.96484,230.373535 L1415.48877,247.397949 L1415.48877,260.11084 L1427.69922,273.517578 L1427.69922,280.529297 L1432.0835,289.286133 L1438.66357,298.64209 L1435.70508,302.166016 L1435.70508,303.675293 L1435.70508,307.139648 L1435.70508,317.23877 L1435.70508,318.455566 L1439.52979,318.455566 L1441.94922,320.585449 L1442.61572,323.944824 L1443.13086,326.389648 L1443.69971,337.69043 L1453.56641,337.69043 L1449.11621,342.530273 L1447.63135,344.843262 L1449.11621,347.387695 L1451.85742,351.911133 C1454.54329,352.510742 1455.88623,353.072754 1455.88623,353.597168 C1455.88623,354.121582 1457.05745,354.88737 1459.3999,355.894531 L1463.85156,355.894531 L1476.08057,355.894531 L1479.63379,355.894531 L1482.14307,355.894531 L1485.14209,354.385742 L1487.64941,353.597168 L1487.64941,356.985352 L1486.68457,359.135254 L1487.64941,361.706543 L1489.87158,363.625 L1489.87158,366.943848 L1487.64941,367.96582 L1485.8501,369.66748 L1478.61865,377.818359 L1476.08057,377.818359 L1476.87158,383.723145 L1476.08057,385.601074 L1476.08057,389.208008 L1475.5542,392.363281 L1482.14307,393.312988 L1485.14209,396.094727 L1488.69775,400.723633 L1491.12207,402.422852 L1497.39209,402.422852 L1499.95459,402.422852 L1495.03271,408.937012 L1492.51855,411.731445 L1494.2749,412.543945 L1498.02979,413.653809 L1501.46973,413.653809 L1501.46973,420.144531 L1468.48193,420.144531 L1464.88086,421.981934 L1461.07275,423.941895 L1456.3916,426.366699 L1453.56641,426.366699 L1451.85742,428.427734 L1451.03662,428.427734 L1450.02783,430.876953 L1448.50732,432.931641 L1445.33057,432.075195 L1441.36914,429.563477 L1437.68213,426.957031 L1436.84717,423.419922 L1359.43262,422.75 L1334.19775,423.941895 L1334.19775,425.347168 L1325.08154,425.347168 L1324.5332,419.056152 L1324.5332,416.214844 L1325.08154,415.513672 L1326.07568,412.543945 L1326.07568,408.306641 L1323.16016,405.501465 L1322.49121,402.422852 L1323.16016,400.723633 L1322.49121,398.368652 L1322.49121,396.094727 L1322.49121,393.312988 L1321.42139,392.363281 L1320.81982,389.208008 L1319.44971,387.393066 L1320.81982,383.723145 L1320.81982,381.346191 L1320.81982,378.659668 L1319.44971,376.075684 L1317.65479,375.500977 L1316.38525,373.306641 L1314.59863,369.66748 L1314.59863,366.943848 L1312.80811,366.943848 L1310.25146,361.706543 L1308.17725,360.780273 L1306.29248,359.135254 L1303.5083,359.135254 L1302.61035,351.911133 L1301.37695,346.105469 L1298.25293,339.006836 L1298.25293,302.166016 Z" id="Path-49" fill="#D8D8D8"></path>
            <polyline id="Path-50" fill="#D8D8D8" points="1390.87109 176.3125 1417.75879 148.589844 1420.6709 151.088867 1420.6709 153.600586 1419.30078 155.575195 1416.0625 155.575195 1414.54492 157.329102 1414.54492 160.921875 1419.30078 164.767578 1421.71289 167.608398 1426.04785 167.608398 1428.86914 170.954102 1428.86914 174.811523 1428.86914 179.216797 1432.42383 181.904297 1435.1582 187.033203 1439.20312 189.716797 1441.99805 191.354492 1447.39355 191.354492 1453.34863 191.354492 1457.49512 187.033203 1462.07324 180.852539 1465.22461 179.216797 1469.14648 179.216797 1471.35156 180.852539 1469.14648 181.904297 1469.14648 187.033203 1469.14648 189.716797 1466.7002 191.354492 1466.7002 195.949219 1466.7002 203.350586 1465.22461 209.542969 1465.22461 213.34082 1463.11719 216.756836 1466.7002 222.055664 1471.35156 223.733398 1472.58984 227.574219 1475.37793 231.314453 1476.63477 233.634766 1471.35156 229.897461 1471.35156 233.634766 1472.58984 236.086914 1476.63477 236.086914 1478.80859 236.086914 1481.53125 239.306641 1485.42773 242.085938 1490.18359 244.270508 1491.1875 247.970703 1487.70312 247.970703 1487.70312 250.618164 1491.1875 251.964844 1491.1875 255.264648 1490.18359 256.765625 1491.1875 259.567383 1492.76465 261.858398 1492.76465 264.575195 1491.1875 264.575195 1491.1875 269.000977 1490.18359 270.958984 1487.70312 270.958984 1488.93848 274.726562 1487.70312 276.494141 1483.56543 276.494141 1478.80859 277.730469 1478.80859 281.057617 1476.63477 285.008789 1474.22852 285.008789 1474.22852 288.890625 1476.63477 290.28125 1478.80859 292.829102 1475.37793 292.829102 1469.14648 294.026367 1466.7002 294.026367 1465.22461 295.573242 1461.05566 295.573242 1457.49512 296.925781 1455.83008 300.616211 1451.79785 301.799805 1451.79785 304.128906 1449.69824 307.890625 1453.34863 312.176758 1454.74023 315.469727 1454.74023 321.009766 1458.9375 323.954102 1463.11719 323.954102 1463.11719 322.271484 1467.93652 323.954102 1472.58984 325.036133 1475.37793 325.036133 1474.22852 322.271484 1471.35156 321.009766 1465.22461 318.415039 1474.22852 318.415039 1478.80859 321.009766 1483.56543 321.009766 1487.70312 322.271484 1492.76465 321.009766 1498.66406 321.009766 1497.62988 323.954102 1501.07324 325.036133 1503.98242 327.34375 1505.91504 330.131836 1503.98242 331.788086 1503.98242 333.56543 1496.02637 333.56543 1497.62988 335.770508 1497.62988 338.895508 1498.66406 340.84082 1502.83984 340.84082 1502.83984 344.395508 1501.07324 347.216797 1498.66406 348.830078 1496.02637 351.331055 1492.76465 353.754883 1492.76465 357.696289 1492.76465 358.883789 1496.02637 362.396484 1498.66406 363.59082 1501.07324 363.59082 1501.07324 367.790039 1497.62988 372.089844 1492.76465 375.498047 1491.1875 378.214844 1491.1875 380.699219 1494.5498 384.273438 1501.07324 385.586914 1505.91504 380.699219 1510.99121 378.214844 1515.31152 375.498047 1515.31152 378.214844 1513.74512 382.863281 1513.74512 387.973633 1512.02344 393.467773 1512.02344 396.017578 1512.02344 398.611328 1513.74512 401.672852 1515.31152 403.040039 1508.57715 405.166016 1508.57715 409.996094 1508.57715 416.887695 1505.91504 419.764648 1508.57715 421.214844 1508.57715 424.335938 1505.91504 426.075195 1502.83984 427.261719 1501.07324 429.428711 1498.66406 432.232422 1498.66406 423.117188 1503.98242 423.117188 1503.98242 411.547852 1499.8584 409.996094 1497.62988 409.996094 1501.07324 405.166016 1505.91504 401.672852 1503.98242 398.611328 1497.62988 398.611328 1492.76465 398.611328 1483.56543 391.071289 1485.42773 391.071289 1485.42773 387.973633 1487.70312 385.586914 1485.42773 384.273438 1483.56543 385.586914 1483.56543 387.973633 1481.53125 389.321289 1478.80859 389.321289 1478.80859 384.273438 1478.80859 382.863281 1480.1543 380.699219 1490.18359 370.4375 1492.76465 370.4375 1492.76465 363.59082 1490.18359 358.883789 1490.18359 354.998047 1491.1875 345.719727 1488.93848 347.216797 1486.52051 350.160156 1483.56543 351.331055 1474.22852 351.331055 1469.14648 353.754883 1465.22461 351.331055 1461.05566 351.331055 1457.49512 351.331055 1454.74023 347.216797 1451.79785 344.395508 1458.9375 337.288086 1458.9375 335.770508 1447.39355 334.583008 1447.39355 323.954102 1443.68848 318.415039 1442.12109 316.152344 1438.43945 316.152344 1438.43945 302.445312 1441.36816 300.602539 1441.36816 297.739258 1430.5918 279.633789 1430.5918 270.765625 1419.36328 258.541016 1419.36328 245.999023 1417.60547 242.723633 1417.60547 226.174805 1405.03223 207.829102 1401.21094 200.956055 1396.38184 196.956055 1393.64258 193.904297 1391.79004 191.766602 1390.61816 186.287109 1390.61816 174.654297"></polyline>
            <polygon id="Path-51" fill="#D8D8D8" points="1373.5293 425.505859 1434.87891 425.505859 1434.87891 429.251953 1447.19336 435.695312 1453.73242 430.600586 1459.41016 429.251953 1463.64648 425.505859 1461.17773 430.600586 1462.62109 441.4375 1483.66309 515.65625 1484.99121 531.446289 1484.99121 552.290039 1423.73438 586.796875 1423.73438 590.567383 1418.92285 587.852539 1415.89551 586.796875 1412.63281 582.388672 1411.53125 576.329102 1412.63281 574.180664 1409.99023 570.923828 1409.99023 565.124023 1405.44043 562.444336 1402.81934 555.581055 1402.81934 552.290039 1405.44043 547.279297 1405.44043 544.431641 1405.44043 541.56543 1405.44043 537.8125 1402.81934 534.202148 1405.44043 528.960938 1402.81934 525.888672 1402.81934 521.887695 1405.44043 519.02832 1409.99023 515.65625 1409.99023 508.036621 1418.92285 506.236328 1422.35449 484.348633 1418.92285 478.301758 1417.41309 476.00293 1422.35449 470.945312 1422.35449 460.470703 1418.92285 454.072266 1415.89551 452.119141 1395.17383 481.15625 1392.80566 482.357422 1392.80566 476.00293 1391.3584 471.96582 1388.89551 468.667969 1385.67285 466.8125 1384.35449 463.043945 1378.97559 457.188477 1374.76855 435.695312"></polygon>
            <polygon id="Path-52" fill="#D8D8D8" points="1464.35059 430.863281 1469.22559 423.125 1496.45312 423.125 1496.45312 437.104492 1499.03613 443.650391 1502.20898 445.500977 1502.20898 446.785156 1500.89844 448.828125 1503.33984 451.048828 1507.94531 451.048828 1511.23145 453.385742 1514.85254 457.738281 1518.49609 463.402344 1521.57617 467.282227 1525.8125 469.014648 1530.76172 470.348633 1533.49121 471.603516 1535.19727 475.75 1535.19727 478.455078 1533.49121 484.992188 1533.49121 488.052734 1537.08789 491.073242 1535.19727 494.424805 1535.19727 498.164062 1537.08789 501.00293 1539.74316 506.22168 1542.37891 515.581055 1541.36621 520.131836 1539.74316 522.258789 1535.19727 522.258789 1533.49121 522.258789 1533.49121 526.098633 1533.49121 530.057617 1533.49121 531.810547 1533.49121 535.942383 1533.49121 539.579102 1535.19727 541.428711 1535.19727 543.235352 1533.49121 546.411133 1535.19727 550.342773 1539.74316 550.342773 1542.37891 552.426758 1539.74316 556.488281 1539.74316 560.344727 1537.08789 561.867187 1535.19727 563.964844 1530.76172 566.008789 1529.64746 570.645508 1527.9873 573.255859 1527.9873 577.607422 1524.47949 580.328125 1524.47949 582.026367 1521.57617 582.026367 1519.55469 584.675781 1518.49609 586.884766 1518.49609 591.573242 1514.85254 593.34082 1513.50195 599.618164 1514.85254 602.020508 1514.85254 604.936523 1510.21875 604.936523 1506.41309 604.936523 1499.03613 604.936523 1493.91211 602.020508 1491.01172 603.507812 1489.50586 609.327148 1488.16895 614.686523 1484.7959 616.730469 1479.25293 616.730469 1473.64551 614.686523 1471.60254 612.348633 1469.22559 612.348633 1467.26367 612.348633 1467.26367 616.730469 1464.35059 620.708008 1462.39941 622.226562 1460.11914 622.226562 1460.11914 624.477539 1479.25293 648.990234 1477.87305 651.171875 1477.87305 655.555664 1476.67676 659.677734 1473.64551 664.404297 1473.64551 669.612305 1471.60254 674.65918 1473.64551 680.03125 1473.64551 687.880859 1471.60254 693.077148 1471.60254 700.063477 1471.60254 704.823242 1471.60254 709.624023 1467.26367 714.505859 1467.26367 718.658203 1467.26367 722.831055 1467.26367 725.645508 1469.22559 727.181641 1469.22559 733.173828 1467.26367 734.237305 1467.26367 729.455078 1465.44141 727.181641 1464.35059 722.831055 1462.39941 718.658203 1458.20215 718.658203 1458.20215 714.505859 1458.20215 712.399414 1458.20215 708.019531 1447.84961 693.077148 1447.84961 681.308594 1449.4209 678.814453 1445.37305 669.612305 1445.37305 664.404297 1447.84961 662.364258 1449.4209 657.37207 1449.4209 653.275391 1445.37305 645.553711 1449.4209 639.723633 1447.84961 633.3125 1445.37305 627.763672 1437.67773 627.763672 1429.08301 618.683594 1429.08301 612.348633 1429.08301 608.245117 1429.08301 606.160156 1429.08301 599.618164 1427.38672 595.438477 1424.82129 593.34082 1427.38672 586.884766 1432.62109 586.884766 1488.16895 556.488281 1488.16895 513.515625 1464.35059 432.647461"></polygon>
            <polygon id="Path-53" fill="#D8D8D8" points="1491.17871 640.506836 1495.25195 639.139648 1495.25195 630.279297 1486.84277 623.036133 1483.95801 619.702148 1481.7832 618.699219 1481.7832 621.433594 1481.7832 625.086914 1485.6748 627.821289 1485.6748 630.279297 1483.95801 633.069336 1485.6748 636.356445 1486.84277 639.139648"></polygon>
            <polygon id="Path-54" fill="#D8D8D8" points="1331.91455 455.729736 1331.91455 439.80835 1331.91455 437.742188 1330.33301 437.131348 1330.04443 436.766357 1330.04443 435.216553 1328.16211 434.738037 1328.16211 431.424316 1327.81055 429.255127 1326.79199 428.367432 1326.79199 427.074951 1330.33301 426.763672 1334.38867 427.074951 1334.38867 426.220947 1357.97681 426.220947 1359.02563 425.146973 1370.9519 425.146973 1371.25098 428.367432 1371.96606 433.573975 1372.28198 434.738037 1372.9917 440.438354 1374.05103 446.404297 1374.5459 447.514893 1374.5459 450.251465 1375.09937 452.926025 1376.06616 452.926025 1376.06616 455.331055 1376.06616 458.191162 1376.41455 460.077881 1381.55444 464.822754 1383.71533 468.911133 1385.80273 470.769775 1388.90015 472.813477 1389.96216 479.313477 1390.54419 481.178223 1389.96216 482.633545 1389.96216 484.10083 1390.83081 484.49585 1395.23877 484.49585 1415.91064 456.155273 1418.94775 462.39502 1419.53369 466.42041 1418.94775 469.283203 1418.94775 472.229248 1417.02539 472.229248 1417.02539 473.505859 1415.177 475.743896 1413.92725 477.391113 1414.71045 478.064209 1415.177 480.352051 1417.02539 482.368896 1418.94775 484.49585 1418.94775 486.029541 1419.53369 486.742188 1419.24121 487.949707 1418.94775 489.009521 1418.94775 491.568848 1418.94775 493.614258 1418.2854 493.614258 1418.2854 497.399902 1418.2854 498.723145 1417.02539 498.723145 1417.02539 501.674316 1417.02539 503.825928 1415.91064 503.825928 1415.177 504.479492 1406.31299 506.990967 1406.31299 510.411621 1406.31299 512.531006 1406.31299 514.460449 1400.3042 521.561035 1400.3042 528.055176 1401.38843 528.4375 1401.38843 531.175537 1401.38843 532.919922 1400.57886 534.283447 1400.57886 536.023926 1398.68848 536.324219 1397.75488 536.324219 1397.75488 537.385254 1396.82837 537.704346 1396.82837 538.807373 1394.81787 539.325439 1392.40918 541.103516 1387.70166 542.784668 1385.80273 543.137695 1385.34497 544.498047 1383.71533 546.35791 1381.95068 548.541016 1380.14819 549.572021 1379.63232 550.740723 1376.06616 551.146729 1376.06616 552.803711 1374.5459 554.310547 1370.13989 555.16626 1370.13989 556.053223 1364.75952 558.758789 1363.09888 559.158936 1363.09888 560.187256 1363.09888 560.864502 1355.86646 560.864502 1355.15137 560.864502 1355.15137 528.055176 1357.69482 526.126221 1357.69482 523.251221 1355.86646 523.642578 1355.15137 523.251221 1353.83984 522.912109 1352.64893 522.912109 1349.34399 518.213135 1348.99243 514.460449 1347.95337 513.875488 1347.69287 508.943115 1346.53125 507.45166 1345.2644 505.830078 1344.80859 503.174805 1343.5603 502.15332 1301.86816 501.674316 1301.86816 491.568848 1305.23535 491.568848 1307.45898 489.009521 1309.75 490.395508 1312.99316 491.568848 1321.90723 491.568848 1324.40625 493.005737 1327.81055 493.005737 1331.91455 491.568848 1334.38867 487.949707 1334.38867 484.10083 1334.38867 481.178223 1335.50293 477.391113 1336.59082 462.39502 1334.38867 460.077881"></polygon>
            <polygon id="Path-55" fill="#D8D8D8" points="1342.66797 504.963867 1342.66797 507.235352 1345.32715 511.381836 1345.32715 516.160156 1350.03711 523.679688 1352.57812 526.09668 1352.57812 562.263672 1365.37988 562.263672 1367.6582 560.852539 1367.6582 564.873047 1369.98926 571.671875 1371.2832 579.944336 1367.6582 586.486328 1365.37988 592.135742 1360.58496 594.686523 1355.15137 594.686523 1351.52539 594.686523 1346.88281 599.482422 1339.28711 608.495117 1339.28711 617.186523 1339.28711 621.450195 1335.48535 623.214844 1332.45898 628.637695 1324.97656 637.511719 1323.1123 638.552734 1319.53125 640.09375 1319.53125 642.496094 1319.53125 646.665039 1320.7207 651.183594 1316.92383 654.491211 1319.53125 660.457031 1319.53125 665.439453 1319.53125 670.743164 1320.7207 676.973633 1324.97656 678.572266 1328.20117 681.013672 1332.45898 681.013672 1330.01367 678.572266 1324.97656 669.300781 1330.01367 673.12207 1331.18945 676.973633 1334.09473 676.973633 1336.84619 678.572266 1336.84619 681.013672 1341.10645 683.734375 1344.20703 685.636719 1345.32715 688.97168 1345.32715 690.600586 1346.88281 693.87793 1351.52539 691.723633 1355.15137 693.87793 1355.15137 695.916016 1355.15137 698.318359 1358.74805 695.916016 1358.74805 700.811523 1356.99512 702.330078 1356.99512 708.164062 1361.90625 711.767578 1363.03809 715.258789 1363.03809 717.480469 1365.37988 721.152344 1367.6582 727.619141 1369.98926 732.895508 1369.98926 736.740234 1372.63574 737.992188 1372.63574 739.923828 1376.96582 744.52832 1379.30664 753.415039 1379.30664 759.083984 1379.30664 763.091797 1379.30664 765.31543 1379.30664 769.676758 1376.96582 771.882812 1376.96582 778.441406 1376.96582 781.683594 1375.28223 788.592773 1369.98926 800.842773 1363.03809 809.137695 1355.15137 819.463867 1350.03711 825.698242 1344.20703 835.96875 1332.45898 854.425781 1328.20117 860.246094 1326.41406 865.057617 1321.94336 866.092773 1316.92383 866.092773 1312.20508 865.057617 1312.20508 861.802734 1316.92383 860.246094 1319.53125 855.714844 1324.97656 851.320312 1324.97656 845.832031 1336.84619 825.698242 1336.84619 819.463867 1339.28711 819.463867 1341.10645 817.463867 1341.10645 803.12207 1348.8457 778.441406 1350.03711 769.676758 1346.88281 763.091797 1344.20703 761.569336 1344.20703 744.52832 1339.28711 736.740234 1339.28711 732.895508 1334.09473 727.619141 1330.01367 727.619141 1330.01367 721.152344 1334.09473 713.595703 1334.09473 710.041016 1331.18945 706.804688 1328.20117 702.330078 1324.97656 700.811523 1324.97656 695.916016 1318.28613 690.600586 1316.92383 688.97168 1313.91309 688.97168 1309.27246 693.87793 1306.51465 698.318359 1304.7334 702.330078 1299.97754 703.44043 1294.86816 703.44043 1290.97754 700.811523 1287.9502 698.318359 1286.3877 695.916016 1287.9502 683.734375 1286.3877 679.629883 1283.5918 673.12207 1280.2998 667.016602 1277.28418 663.128906 1277.28418 658.492188 1278.49512 654.491211 1275.89355 649.885742 1275.89355 644.662109 1274.60059 641.133789 1275.89355 640.09375 1278.49512 640.09375 1280.2998 638.552734 1283.5918 634.932617 1283.5918 630.135742 1287.9502 626.152344 1290.97754 623.214844 1294.86816 620.302734 1298.87891 619.041992 1304.7334 608.495117 1304.7334 603.541992 1309.27246 603.541992 1312.20508 600.964844 1309.27246 593.543945 1307.7207 587.859375 1307.7207 586.486328 1306.51465 582.404297 1302.40918 579.944336 1298.87891 574.850586 1298.87891 559.080078 1298.87891 551.077148 1298.87891 544.766602 1296.64746 540.390625 1296.64746 533.576172 1298.87891 530.327148 1298.87891 521.623047 1302.40918 513.613281 1302.40918 504.963867"></polygon>
            <polygon id="Path-56" fill="#D8D8D8" points="1376.62891 574.085938 1376.62891 578.522461 1373.35254 581.582031 1372.0918 586.168945 1372.0918 589.186523 1373.35254 590.470703 1374.36035 590.470703 1377.78809 590.470703 1380.25684 592.149414 1380.25684 595.576172 1381.68945 599.024414 1381.68945 603.676758 1382.77246 608.834961 1384.64746 613.626953 1385.65527 615.476562 1386.94434 619.989258 1389.05664 621.742188 1391.95508 619.989258 1393.12207 615.476562 1393.12207 611.959961 1393.12207 605.576172 1391.95508 600.858398 1391.95508 595.576172 1393.12207 587.950195 1395.61133 582.736328 1393.12207 578.522461 1389.05664 574.085938 1384.64746 572.78125 1381.68945 570.030273 1379 568.803711 1376.62891 568.803711"></polygon>
            <path d="M1269.78711,649.169922 L1275.74805,653.570312 L1274.5166,655.553711 L1274.5166,664.196289 L1274.5166,666.414062 C1279.0804,669.263021 1282.27832,674.385091 1284.11035,681.780273 L1284.55664,693.389648 L1222.45898,693.389648 L1206.69434,668.757812 L1192.76758,679.795898 L1190.61621,676.140625 L1185.9082,676.140625 L1185.9082,683.852539 L1179.77637,693.389648 L1178.74707,695.200195 L1184.11914,709.849609 L1185.9082,716.386719 L1184.11914,720.569336 L1179.77637,728.058594 L1163.19629,717.727539 L1154.71387,719.177734 L1150.38574,720.569336 L1149.01855,720.569336 L1149.01855,724.919922 L1141.47363,726.506836 L1141.47363,744.024414 L1141.47363,748.584961 L1139.92969,751.828125 L1135.63184,759.702148 L1134.06934,761.055664 L1134.06934,763.620117 L1134.06934,766.173828 L1128.05664,766.173828 L1120.31738,758.676758 L1114.44629,757.449219 L1105.00781,751.828125 L1101.04395,746.626953 L1101.04395,739.410156 L1097.79492,736.899414 L1088.87207,728.058594 L1084.49121,723.202148 L1083.23535,717.727539 L1078.23242,716.386719 L1075.49023,709.849609 L1075.49023,703.386719 L1075.49023,696.879883 L1073.09766,695.200195 L1073.09766,693.389648 L1073.09766,689.233398 L1078.23242,689.233398 L1078.23242,687.290039 L1075.49023,686.174805 L1075.49023,682.219727 L1078.23242,679.795898 L1078.23242,672.813477 L1075.49023,668.757812 L1073.09766,661.798828 L1073.09766,657.003906 L1073.09766,653.75 L1118.81543,653.75 L1118.81543,657.003906 L1163.19629,657.003906 L1175.12988,647.022461 L1176.27344,641.353516 L1175.12988,637.532227 L1172.27246,634.839844 L1172.27246,632.705078 L1185.9082,629.205078 L1189.58691,630.352539 L1192.76758,630.352539 L1192.76758,634.839844 L1190.61621,640.104492 L1189.58691,644.051758 L1190.61621,647.022461 L1202.94824,647.022461 L1202.94824,653.75 L1205.50098,655.760742 L1206.69434,658.107422 L1208.78711,660.219727 L1208.78711,664.510742 L1209.79492,668.757812 L1212.19629,671.119141 L1212.19629,672.813477 L1215.34375,673.949219 L1218.65625,676.140625 L1222.45898,676.140625 L1225.01758,671.119141 L1233.59961,671.119141 L1233.59961,667.05957 L1271.1123,649.227539" id="Path-62" fill="#D8D8D8"></path>
            <path d="M1109.19043,530.787109 L1104.46875,530.787109 L1104.46875,526.385742 L1117.3877,509.994141 L1132.73828,503.378906 L1138.32617,502.268555 L1148.62305,489.695312 L1148.62305,506.981445 L1148.62305,511.454102 L1153.91504,515.930664 L1156.28223,521.261719 L1156.28223,526.385742 L1152.35254,534.724609 L1148.62305,543.044922 L1148.62305,548.099609 L1142.46875,549.762695 L1137.21973,559.917969 L1132.73828,567.560547 L1130.37549,572.338867 L1132.73828,575.592773 L1135.04395,575.592773 L1138.32617,574.398438 L1141.12012,571.28125 L1144.41699,569.544922 L1144.41699,564.285156 L1148.62305,564.285156 L1152.35254,562.139648 L1159.87891,562.139648 L1159.87891,564.285156 L1148.62305,585.371094 L1148.62305,590.469727 L1150.84766,592.000977 L1153.91504,595.560547 L1159.87891,598.904297 L1163.34375,600.185547 L1165.67676,600.185547 L1168.67383,602.602539 L1170.16504,604.963867 L1171.84766,608.037109 L1175.51855,611.458008 L1182.50586,611.458008 L1187.87988,613.092773 L1191.32617,615.766602 L1195.5918,615.766602 L1197.00293,610.146484 L1200.68555,606.913086 L1200.68555,602.602539 L1198.64062,596.71582 L1195.5918,595.560547 L1195.5918,592.000977 L1200.68555,592.000977 L1204.2666,590.469727 L1204.2666,585.371094 L1202.5,580.930664 L1197.00293,575.592773 L1197.00293,572.338867 L1200.68555,571.28125 L1202.5,574.398438 L1207.25391,578.288086 L1214.16406,587.329102 L1216.63965,589.333984 L1219.8125,590.469727 L1219.8125,593.433594 L1214.16406,593.433594 L1214.16406,604.963867 L1214.16406,606.913086 L1216.63965,608.037109 L1216.63965,645.649414 C1220.13184,649.977539 1224.05013,650.862305 1228.39453,648.303711 C1232.73893,645.745117 1236.95866,646.398763 1241.05371,650.264648 L1246.7041,653.419922 L1249.95801,656.137695 L1234.22852,664.277344 L1230.98633,666.21875 L1230.98633,667.847656 L1226.60059,667.847656 L1224.01562,664.277344 L1219.8125,660.080078 L1218.19824,660.080078 L1218.19824,664.277344 L1218.19824,667.847656 L1216.63965,667.847656 L1214.16406,669.107422 L1210.68262,664.277344 L1210.68262,656.137695 L1207.25391,654.723633 L1207.25391,648.303711 L1204.2666,644.086914 L1193.12793,644.086914 C1191.92676,643.555664 1191.32617,643.02832 1191.32617,642.504883 C1191.32617,641.981445 1191.92676,640.50293 1193.12793,638.069336 L1197.00293,630.254883 L1197.00293,626.745117 L1190.18945,626.745117 L1182.50586,626.745117 L1175.51855,628.378906 L1170.16504,630.254883 L1170.16504,637.019531 L1173.18457,639.15918 L1173.18457,644.086914 L1161.42969,654.723633 L1122.5791,654.723633 L1121.51465,650.264648 L1074.56445,651.272461 L1074.56445,644.086914 L1070.58691,642.504883 L1067.87109,642.504883 L1066.86719,645.649414 L1063.7002,645.649414 L1063.7002,642.504883 L1060.68262,639.15918 L1059.05957,638.069336 L1060.68262,630.254883 L1062.5498,626.745117 L1060.68262,619.670898 L1062.5498,618.25 L1063.7002,610.146484 L1066.86719,606.913086 L1066.86719,597.720703 L1074.56445,587.329102 L1078.30078,576.966797 L1083.93359,576.966797 L1090.91211,574.398438 L1099.4541,572.338867 L1106.4375,572.338867 L1109.19043,575.592773 L1110.87891,579.401367 L1114.80664,580.930664 L1118.83496,582.280273 L1123.58594,584.095703 L1127.24902,585.371094 L1129.33398,579.401367 L1127.24902,578.288086 L1122.5791,575.592773 L1118.83496,574.398438 L1114.80664,569.544922 L1112.57812,564.285156 L1109.19043,560.945312 L1106.4375,556.615234 L1106.4375,552.599609 L1106.4375,549.762695 L1106.4375,541.232422 L1107.47363,538.430664 L1110.87891,540.016602 L1112.57812,538.430664 L1114.80664,536.316406 L1112.57812,534.724609 L1112.57812,528.480469 L1109.19043,528.480469 L1109.19043,530.787109 Z" id="Path-63" fill="#D8D8D8"></path>
            <polygon id="Path-64" fill="#D8D8D8" points="1104.84473 558.711914 1107.30469 562.236328 1110.89746 566.297852 1114.70117 570.597656 1117.12109 574.617188 1120.33301 577.296875 1126.85938 580.297852 1126.85938 582.464844 1123.41016 582.464844 1120.33301 580.297852 1115.85205 580.297852 1112.95898 577.296875 1110.89746 574.617188 1107.30469 570.597656 1102.74609 569.436523 1098.97754 569.436523 1095.35156 568.192383 1098.97754 562.236328 1102.74609 560.880859 1102.74609 558.711914"></polygon>
            <path d="M1145.35742,748.092773 L1144.06543,742.606445 L1144.06543,729.220703 L1148.77637,729.220703 L1151.38867,725.936523 L1151.38867,722.90918 L1155.33789,722.90918 L1157.28418,721.155273 L1159.25781,721.155273 L1161.28613,721.155273 L1179.91895,731.526367 L1183.55469,729.220703 L1187.5918,721.155273 L1189.37598,714.701172 L1186.25879,706.498047 L1183.55469,698.676758 L1183.55469,693.791992 L1186.25879,687.661133 L1189.37598,682.880859 L1187.5918,679.256836 L1189.37598,679.256836 L1191.79883,682.880859 L1196.71094,681.293945 L1202.9502,675.071289 L1206.57617,672.285156 L1220.35938,695.625 L1283.27051,695.625 L1283.27051,698.676758 C1277.71257,699.838216 1274.21745,701.679362 1272.78516,704.200195 C1271.35286,706.721029 1268.66829,712.372721 1264.73145,721.155273 L1264.73145,724.421875 L1285.10547,734.661133 L1288.97754,736.619141 L1293.06055,736.619141 L1296.47852,739.929688 L1299.48242,742.606445 L1296.47852,748.092773 L1294.2627,750.728516 L1294.2627,767.397461 C1290.73926,767.786133 1288.97754,768.657227 1288.97754,770.010742 C1288.97754,771.364258 1288.34212,770.6875 1287.07129,767.980469 L1283.27051,767.980469 L1279.9668,767.980469 L1278.57812,770.010742 L1278.57812,775.799805 L1278.57812,782.852539 L1274.41895,787.698242 L1272.78516,791.206055 L1271.4668,793.744141 L1264.73145,793.744141 L1262.07715,791.206055 L1262.07715,781.286133 L1259.77148,777.545898 L1256.24121,781.286133 L1253.80078,785.206055 L1212.9209,785.206055 L1193.80859,774.729492 L1193.80859,765.236328 L1186.25879,765.236328 L1181.17676,765.236328 L1178.20508,767.397461 L1175.61621,765.236328 L1172.97363,761.133789 L1166.85547,756.899414 L1157.28418,753.80957 L1148.77637,750.728516 C1146.49707,748.971354 1145.87598,748.092773 1146.91309,748.092773 C1147.9502,748.092773 1147.43164,748.092773 1145.35742,748.092773 Z" id="Path-65" fill="#D8D8D8"></path>
            <path d="M1211.1377,787.758789 L1253.7793,787.758789 L1259.52637,782.142578 L1259.52637,791.80957 L1261.41406,796.083984 L1267.57129,796.083984 L1267.57129,802.551758 L1264.24707,806.09082 L1265.33789,808.671875 L1264.24707,812.455078 L1259.52637,812.455078 L1253.7793,812.455078 L1245.81738,812.455078 L1238.01465,812.455078 L1230.35352,810.06543 L1224.74609,807.513672 L1220.66602,808.671875 L1215.91113,804.442383 L1207.2998,801.526367 L1197.91113,796.083984 C1197.44824,796.083984 1197.10905,795.675781 1196.89355,794.859375 C1196.67806,794.042969 1193.40625,793.634766 1187.07812,793.634766 L1180.29688,787.758789 L1171.81836,784.296875 L1162.13965,782.142578 L1154.23242,777.855469 L1146.29883,771.368164 L1140.06445,771.368164 L1134.03809,765.947266 L1136.4668,759.501953 L1142.6123,751.047852 L1148.63184,753.780273 L1159.03027,756.863281 L1165.89062,761.154297 L1171.81836,765.947266 L1176.79492,768.910156 L1183.32031,768.910156 L1189.79199,768.910156 L1189.79199,775.848633 L1193.50195,777.855469 L1211.1377,787.758789 Z" id="Path-66" fill="#D8D8D8"></path>
            <polygon id="Path-57" fill="#D8D8D8" points="1381.72266 617.338867 1377.58398 610.547852 1373.29297 612.135742 1373.29297 613.943359 1374.3291 617.338867 1377.50781 622.595703 1380.71387 618.702148"></polygon>
            <path d="M1328.33008,898.506544 L1328.33008,893 C1327.89456,892.456007 1327.14082,892.131788 1326.06885,892.027344 C1324.99687,891.922899 1322.42298,891.922899 1318.34717,892.027344 L1312.45898,895.753272 L1309.91992,898.506544 L1312.45898,900.744137 L1316.58789,902.908203 C1318.07078,903.173673 1319.18683,903.173673 1319.93604,902.908203 C1320.68524,902.642733 1321.605,901.921378 1322.69531,900.744137 L1325.00586,902.908203 C1326.28554,903.484416 1327.14296,903.484416 1327.57812,902.908203 C1328.01329,902.33199 1328.26394,900.864771 1328.33008,898.506544 Z" id="Path-58" fill="#D8D8D8"></path>
            <polygon id="Path-59" fill="#D8D8D8" points="1336.78564 899.023926 1338.93604 892.900391 1342.17529 886.894043 1341.00244 884.828613 1340.41553 881.64502 1338.38721 880.080078 1336.78564 879.541016 1335.44824 882.34375 1334.23779 885.685547 1334.23779 888.663086 1334.23779 889.282471 1333.21777 890.33252 1334.23779 891.579102 1334.23779 894.427734 1334.771 896.883789"></polygon>
            <path d="M1259.99707,536.144531 L1265.50781,532.988281 L1265.50781,528.900391 L1268.1582,527.329102 L1276.00098,527.329102 L1279.91309,524.30957 L1282.43945,523.208008 L1285.95801,512.392578 L1287.98242,507.330078 L1290.98633,505.183594 L1294.375,503.296875 L1297.11523,501.220703 L1298.4541,503.296875 L1298.4541,508.698242 L1297.11523,515.066406 L1297.11523,518.682617 L1295.66797,523.208008 L1295.66797,528.900391 L1294.375,532.988281 L1294.375,538.329102 L1294.375,541.604492 L1294.375,544.359375 L1295.66797,548.673828 L1295.66797,555.275391 L1295.66797,560.649414 L1295.66797,563.999023 L1295.66797,570.129883 L1297.11523,575.50293 L1297.11523,578.880859 L1300.23047,580.646484 L1304.93457,585.173828 L1304.93457,591.363281 L1304.93457,594.810547 L1306.29492,596.826172 L1306.29492,599.243164 L1303.04102,600.539062 L1301.9043,602.908203 L1300.23047,608.643555 L1298.4541,613.339844 L1294.375,617.698242 L1289.15039,620.369141 L1285.95801,623.655273 L1282.43945,626.582031 L1279.91309,630.648438 L1279.91309,634.922852 L1277.83301,636.24707 L1276.00098,636.24707 L1272.9082,636.24707 L1271.375,641.198242 L1271.375,643.225586 L1272.9082,644.772461 L1253.73145,654.304687 L1247.70312,651.125 L1243.23535,648.318359 L1235.08008,644.772461 L1231.62012,644.772461 L1226.91699,644.772461 L1220.99414,645.882812 L1218.38477,641.198242 L1218.38477,605.746094 L1216.32324,605.746094 L1216.32324,596.826172 L1222.02051,596.826172 L1222.02051,588.753906 L1216.32324,586.692383 L1216.32324,585.173828 L1214.59766,582.56543 L1201.70605,570.129883 L1197.4043,568.582031 L1193.77539,570.129883 L1193.77539,572.967773 L1193.77539,578.880859 L1197.4043,582.56543 L1200.63965,584.080078 L1200.63965,586.692383 L1197.4043,588.753906 L1192.73047,588.753906 L1192.73047,594.810547 L1193.77539,599.243164 L1197.4043,600.539062 L1197.4043,605.746094 L1194.88184,608.643555 L1193.77539,612.241211 L1189.76953,612.241211 L1187.34375,610.785156 L1179.31055,608.643555 L1177.37598,608.643555 L1175.71582,608.643555 L1174.25488,605.746094 L1172.83496,605.746094 L1172.83496,600.539062 L1170.07129,600.539062 L1168.93457,596.826172 L1165.95508,597.833008 L1161.70605,597.833008 L1154.31641,593.268555 L1153.30371,588.753906 L1151.14453,586.692383 L1164.58203,560.649414 L1149.77344,560.649414 L1148.11328,562.50293 L1145.31055,562.50293 L1142.57617,563.999023 L1142.57617,566.919922 L1139.70703,570.129883 L1136.01758,572.967773 L1132.75293,572.967773 L1145.31055,551.613281 L1149.77344,551.613281 L1151.14453,544.359375 L1160.07422,525.931641 L1157.61914,516.893555 L1153.30371,512.392578 L1151.14453,506.291016 L1151.14453,497.069336 L1151.14453,488.796875 L1160.07422,481.34082 C1167.82682,481.703451 1171.15918,482.265299 1170.07129,483.026367 C1168.9834,483.787435 1171.41829,485.710938 1177.37598,488.796875 L1181.69141,491.210938 L1185.81348,491.210938 L1188.69629,491.210938 L1192.73047,488.796875 L1194.88184,488.796875 L1198.8291,487.75 L1201.70605,488.796875 L1206.19336,491.210938 L1210.94238,491.210938 L1214.59766,499.02832 L1218.38477,503.296875 L1216.32324,507.330078 L1214.59766,512.392578 L1214.59766,516.893555 L1214.59766,521.459961 L1219.52393,521.459961 L1220.99414,518.682617 L1222.02051,521.459961 L1222.02051,524.30957 L1223.41016,527.329102 L1226.91699,530.076172 L1231.62012,531.272461 L1237.07617,532.988281 L1239.97363,531.272461 L1242.05762,532.988281 L1245.7373,534.455078 L1249.41699,536.144531 L1257.15527,536.144531 L1259.99707,536.144531 Z" id="Path-60" fill="#D8D8D8"></path>
            <path d="M1267.20898,722.573242 L1272.98438,708.566406 L1281.75098,700.402344 L1286.88184,700.402344 L1289.66406,705.030273 L1295.16211,706.880859 L1302.29492,706.880859 L1308.47559,702.126953 L1312.28516,695.998047 L1314.62988,692.679688 L1320.75781,697.083984 L1320.75781,702.126953 L1324.08789,705.030273 L1327.31836,708.566406 L1329.33496,713.833008 L1327.31836,718.124023 L1327.31836,729.09082 L1329.33496,731.478516 L1333.2168,733.389648 L1335.90723,738.28418 L1340.43457,745.231445 L1341.5791,748.887695 L1341.74414,762.931641 L1343.71777,766.712891 L1346.35254,768.728516 L1346.35254,774.097656 L1346.35254,779.094727 L1337.63867,801.806641 L1337.63867,815.240234 L1335.4375,817.723633 L1334.375,820.885742 L1333.23828,825.504883 L1322.47852,845.112305 L1322.47852,850.574219 L1320.18848,852.235352 L1315.30566,856.682617 L1310.92676,859.250977 L1307.91797,859.250977 L1307.91797,862.538086 L1309.46777,865.705078 L1307.91797,865.705078 L1304.52832,862.538086 L1304.52832,859.250977 L1305.86133,854.227539 L1304.52832,847.735352 L1300.43555,839.744141 L1294.44922,838.429688 L1292.5498,834.811523 L1291.06836,831.017578 L1288.96191,828.349609 L1286.56543,829.703125 L1284.39062,829.703125 L1284.39062,825.504883 L1284.39062,823.648438 L1282.4668,820.885742 L1284.39062,817.723633 L1287.82715,817.723633 L1287.82715,813.75293 L1288.96191,811.311523 L1291.06836,807.369141 L1294.44922,805.53418 L1296.16211,801.806641 L1298.93262,801.806641 L1298.93262,797.369141 L1302.27051,791.010742 L1302.27051,784.891602 L1300.43555,781.0625 L1300.43555,774.097656 L1298.93262,771.072266 L1296.16211,768.728516 L1296.16211,752.362305 L1302.27051,746.078125 L1302.27051,741.609375 L1296.16211,736.743164 C1292.76628,734.679362 1291.06836,734.161133 1291.06836,735.188477 C1291.06836,736.21582 1289.56738,734.941081 1286.56543,731.364258 L1280.01758,728.587891 L1272.18164,725.143555 L1268.35742,724.139648 L1268.35742,721.637695" id="Path-61" fill="#D8D8D8"></path>
            <polygon id="Path-48" fill="#D8D8D8" points="1332.73047 157.864258 1340.02832 155.858398 1340.02832 160.941406 1341.97266 163.564453 1341.97266 166.492188 1344.0166 168.522461 1345.2998 171.697266 1351.27539 171.697266 1352.86328 166.492188 1354.31348 166.492188 1352.86328 163.777832 1351.27539 162.142578 1351.27539 159.110352 1354.31348 155.858398 1351.27539 152.427734 1355.75293 153.779297 1364.80664 155.858398 1376.46191 157.864258 1383.50098 160.941406 1385.48828 166.492188 1385.48828 173.360352 1387.8623 177.141602 1387.8623 192.646484 1390.32129 199.564453 1390.32129 208.331055 1390.32129 214.574219 1387.8623 219.475586 1387.8623 223.460938 1385.48828 229.96582 1383.50098 233.513672 1379.74902 239.368164 1377.6543 245.088867 1375.42969 251.111328 1375.42969 263.081055 1370.06641 270.374023 1370.06641 273.301758 1371.76758 277.84082 1373.80664 286.314453 1373.80664 292.333008 1341.97266 292.333008 1333.81934 298.62793 1297.66211 298.62793 1296.33691 264.962891 1300.14746 263.081055 1300.14746 259.87207 1297.66211 257.005859 1296.33691 254.203125 1293.54004 254.203125 1293.54004 251.111328 1295.27148 249.364258 1295.27148 242.261719 1293.54004 242.261719 1293.54004 236.375 1292.31055 233.513672 1292.31055 228.212891 1292.31055 225.527832 1293.54004 229.96582 1296.33691 233.513672 1298.70215 235.193359 1301.35352 236.375 1306.81543 239.368164 1310.34961 242.261719 1314.72266 238.352539 1319.23047 239.368164 1326.86328 240.510742 1332.73047 239.368164 1338.11426 238.352539 1344.0166 233.513672 1348.1709 227.106445 1348.1709 221.875 1346.94922 215.678711 1346.94922 211.917969 1346.94922 207.058594 1346.94922 199.564453 1345.2998 193.723633 1344.0166 188.114258 1344.0166 183.838867 1341.31592 177.141602 1338.11426 168.522461 1335.25879 166.492188 1335.25879 160.941406"></polygon>
            <path d="M690.564453,572.572266 L722.103516,572.572266 L734.408203,564.666016 L737.335938,559.181641 L739.404297,552.689453 L739.404297,546.640625 L739.404297,533.138672 L748.533691,515.723633 L748.533691,504.88916 L754.659668,496.350098 L772.607422,464.195801 L790.418457,456.540527 L807.546875,441.592285 L832.294434,431.565918 L847.400879,430.261719 L854.041504,431.565918 L866.491699,433.359375 L884.094238,434.782227 L899.19043,422.046387 L911.801758,419.493164 L916.650879,420.541504 L918.797852,418.778809 L918.797852,407.967285 L922.42041,401.675781 L923.111816,376.767578 L949.57373,376.767578 L958.454102,380.614258 L985.913086,381.245117 L985.913086,306.454102 L981.84668,306.454102 L978.848633,305.542969 L976.718262,302.482422 L976.140625,298.992676 L977.453613,296.444824 L978.191406,294.779297 L978.191406,291.589355 L976.718262,291.589355 L976.140625,292.970215 L974.896973,294.108887 L973.349121,294.108887 L971.339355,292.970215 L969.596191,292.970215 L969.596191,291.589355 L967.728516,291.589355 L967.728516,289.461914 L966.483887,289.461914 L965.447266,288.551758 L963.837402,288.551758 L962.706543,287.42334 L957.02832,287.42334 L957.02832,291.589355 L960.710938,294.108887 L960.710938,296.444824 L961.83252,297.62207 L963.837402,298.992676 L962.706543,301.857422 L960.710938,304.783691 L954.965332,303.576172 L952.29248,302.482422 L950.569824,304.177246 L949.57373,308.086426 L949.57373,312.072754 L948.17334,315.928711 L947.02832,319.26709 L944.038574,321.5625 L941.742188,323.455078 L938.360352,323.455078 L935.361328,325.281738 L930.90918,323.455078 L927.439941,323.455078 L923.111816,322.262207 L916.650879,322.262207 L909.641113,323.455078 L905.052246,325.281738 L901.580566,324.539551 L899.848145,324.539551 L898.384277,326.145508 L896.023926,327.597168 L894.915527,329.508789 L893.03125,330.495605 L890.442383,330.495605 L890.442383,333.765137 L890.442383,336.67041 L889.895996,337.794922 L887.383789,340.293457 L886.090332,342.922852 L884.094238,343.528809 L882.422363,343.528809 L882.422363,346.632812 L883.059082,350.298828 L884.094238,353.868164 L884.094238,355.97168 L884.094238,358.266113 L882.422363,359.978516 L879.036621,361.286133 L876.061035,360.58252 L874.890625,361.286133 L874.890625,366.365234 L876.575195,369.606445 L879.036621,371.638672 L881.733887,374.208496 L884.094238,375.354492 L885.077637,379.539551 L884.094238,382.209473 L882.422363,384.126953 L879.036621,386.621582 L873.896973,390.706543 L872.199707,392.734375 L869.469727,393.496094 L864.474121,393.496094 L860.75293,393.496094 L859.724121,395.375488 L858.739746,396.133789 L856.097656,396.812988 L852.381836,396.812988 L850.484863,396.812988 L849.087402,398.037598 L845.327637,399.002441 L838.23877,399.002441 L832.294434,399.002441 L830.306152,396.812988 L830.306152,399.002441 L828.098145,394.266113 L825.383301,388.251953 L824.615723,392.734375 L823.539551,394.266113 L821.353516,396.133789 L820.18457,399.002441 L819.48584,401.675781 L816.374512,401.675781 L812.937988,401.675781 L812.937988,402.962891 L812.937988,404.737793 C809.343913,406.013509 807.546875,406.690755 807.546875,406.769531 C807.546875,406.848307 806.694173,406.491374 804.98877,405.69873 L802.606934,407.3125 L800.177734,407.3125 L796.821777,409.005859 L793.025879,409.005859 L791.197754,407.967285 L788.019531,407.967285 L785.510742,407.967285 L783.367676,409.522949 L777.983887,411.272461 L773.177734,411.272461 L763.916992,415.325684 L760.147949,417.848633 L754.659668,421.061035 L751.299316,421.061035 L747.841797,424.97168 L745.224609,428.125488 L745.224609,429.997803 L745.224609,432.189941 L746.567383,434.194336 L743.803711,437.94043 L741.067871,441.592285 L736.169434,441.592285 L733.376465,444.375977 L729.138672,451.001953 L728.476562,455.056152 L727.32666,458.577148 L726.032227,459.314941 L722.751465,459.912598 L722.103516,461.779785 L723.368164,463.214844 L724.443359,464.195801 L723.368164,464.195801 L722.103516,465.680664 L720.073242,468.361328 L720.073242,470.047852 L724.946777,470.690918 L724.946777,473.237793 L726.032227,476.605469 L727.32666,478.026855 L728.476562,480.105469 L728.476562,483.908691 L728.476562,487.730469 L727.32666,488.76416 L727.32666,490.617188 L726.032227,491.852051 L724.946777,493.196777 L723.368164,493.196777 L723.368164,494.877441 L724.443359,497.371094 L728.476562,496.350098 L729.138672,498.862793 L728.476562,501.725098 L726.546387,503.378418 L724.946777,504.128418 L723.368164,505.395508 L722.103516,508.679688 L719.017578,508.679688 L717.228027,508.679688 L717.228027,510.698242 L719.017578,512.648926 L719.017578,515.723633 L716.59375,519.11084 L715.629883,520.542969 L715.629883,524.855469 L714.737793,526.733398 L715.629883,528.416504 L714.737793,530.280762 L714.105469,531.709961 L713.055176,533.138672 L712.234375,533.896973 L712.234375,534.86377 L713.055176,536.016602 L710.320312,537.158203 L710.320312,538.819824 L710.320312,540.759766 L710.320312,542.13916 L710.320312,545.643555 L713.055176,546.640625 L715.629883,547.357422 L715.629883,549.269043 L714.105469,551.333008 L712.234375,552.063965 L710.320312,553.248535 L708.185547,553.952637 L705.775879,553.952637 L705.233887,555.614746 L702.739746,556.836914 L700.25293,559.181641 L696.872559,559.181641 L696.872559,561.914062 L694.837891,562.561523 L694.016602,566.429199 L691.931641,567.658203 L690.564453,569.952637 L689.211914,571.629883 L689.211914,572.572266 L690.564453,572.572266 Z" id="Path-36" fill="#D8D8D8"></path>
            <polygon id="Path-37" fill="#D8D8D8" points="750.663086 517.140625 750.663086 513.583008 750.663086 506.098633 774.249023 466.623047 792.158203 459.455078 810.211914 443.332031 834.188477 433.855469 845.683594 432.749023 849.6875 432.749023 860.816406 435.240234 872.381836 436.523438 872.381836 450.976562 872.381836 452.979492 879.212891 452.979492 886.115234 452.979492 886.115234 454.031006 894.220459 454.031006 894.220459 454.90918 900.823486 454.90918 900.823486 455.742676 903.329346 455.742676 903.329346 459.455078 904.404297 459.455078 904.404297 466.623047 905.227051 466.623047 905.227051 474.629395 902.943359 474.629395 902.943359 475.624268 902.236572 475.624268 902.236572 478.794189 901.121338 479.060059 901.121338 479.77417 900.225342 479.77417 899.960693 479.060059 898.210938 478.794189 898.210938 479.77417 896.90918 480.081055 896.90918 482.663086 894.220459 482.981689 894.220459 483.825928 893.022705 483.825928 893.022705 484.499512 893.022705 485.126221 894.220459 485.126221 894.220459 485.77417 895.196045 485.77417 895.196045 486.701904 896.599854 486.701904 896.599854 489.805176 892.232422 489.805176 892.232422 490.93335 891.281006 491.226807 891.281006 492.188477 892.591064 492.188477 892.591064 502.30957 891.637695 503.501465 891.281006 505.663086 889.915527 505.663086 889.915527 506.098633 888.089844 506.098633 888.089844 510.838135 887.393799 510.838135 887.393799 511.720215 886.115234 511.720215 886.115234 513.583008 887.107422 513.583008 887.107422 514.972656 888.089844 514.972656 888.089844 515.805176 889.915527 515.805176 889.915527 516.652344 886.115234 516.652344 886.115234 517.510986 884.890869 517.510986 884.890869 518.380859 884.890869 519.453613 884.890869 519.963867 883.792725 519.963867 883.792725 517.869385 882.213867 517.510986 881.88623 515.805176 879.83374 515.805176 879.83374 516.652344 878.06958 516.652344 878.06958 516.099609 876.763184 516.099609 876.763184 513.583008 876.266113 513.583008 875.879395 512.747803 874.93042 512.747803 874.93042 512.174805 873.766602 512.174805 874.019287 508.366455 872.381836 508.366455 871.946045 506.764404 871.946045 505.663086 870.943848 505.663086 870.943848 504.682617 866.474121 504.682617 866.474121 508.366455 866.474121 509.045898 865.424561 509.045898 865.424561 510.838135 865.424561 511.337646 864.594482 511.337646 864.594482 512.747803 861.718262 512.747803 861.718262 513.583008 860.816406 513.583008 860.816406 514.661865 862.370117 514.972656 863.583984 516.652344 863.583984 517.869385 863.583984 519.453613 863.583984 520.228027 858.449707 523.848389 857.482422 523.848389 856.810791 523.848389 856.5354 523.041016 855.569336 523.041016 854.983398 523.041016 854.983398 524.619141 860.34668 528.353516 860.34668 532.584717 861.718262 534.75293 862.949951 535.83252 863.977783 537.072021 865.155029 536.17041 866.474121 533.959473 865.155029 533.298584 865.424561 531.640381 865.971191 530.906006 866.474121 527.343262 865.971191 526.206299 867.357178 524.899902 867.845215 523.848389 869.499512 525.495361 871.946045 525.495361 874.274414 526.206299 874.93042 528.76123 876.266113 529.267578 876.266113 530.211426 875.32373 530.520752 875.32373 531.350586 877.15332 531.640381 881.259521 536.17041 881.88623 537.967285 880.17334 537.967285 878.887695 537.473389 877.794678 537.072021 876.763184 537.072021 876.763184 536.17041 871.946045 536.17041 871.946045 538.798584 873.402832 538.798584 873.402832 539.793457 874.93042 539.793457 875.879395 540.73291 878.06958 540.994141 877.794678 543.145752 875.879395 543.145752 874.274414 542.627686 874.019287 541.832031 872.906006 541.289062 871.946045 541.289062 871.280273 541.289062 871.280273 541.832031 869.178955 541.832031 869.499512 544.187012 868.496338 544.187012 868.496338 547.070312 863.977783 547.070312 862.370117 547.070312 860.34668 547.070312 860.816406 548.161377 858.816895 548.161377 858.449707 549.504395 857.482422 549.832275 856.282471 550.320312 856.282471 552.27417 856.282471 553.523682 853.781494 553.523682 852.928467 553.523682 852.508545 551.946777 851.070068 551.429932 850.422119 549.504395 850.422119 547.070312 850.025635 546.266113 850.025635 544.187012 851.070068 544.187012 850.80542 542.300537 847.983887 541.832031 847.983887 540.73291 847.983887 539.793457 846.776123 539.793457 846.776123 537.967285 847.700195 537.967285 847.983887 537.072021 848.945312 537.072021 848.945312 535.09082 850.422119 534.75293 850.025635 533.298584 848.945312 533.298584 848.945312 531.350586 850.025635 531.350586 850.422119 529.267578 850.422119 527.343262 850.80542 526.206299 852.508545 525.888428 853.216797 525.495361 852.928467 524.619141 852.508545 523.848389 852.508545 521.999023 853.216797 521.643066 853.781494 520.604004 853.781494 518.380859 852.928467 517.869385 852.928467 516.652344 852.928467 516.099609 852.197021 516.099609 852.197021 514.661865 850.422119 514.661865 849.31543 514.972656 849.31543 516.099609 848.305176 516.099609 848.305176 517.140625 846.415039 516.099609 846.776123 511.720215 847.983887 511.720215 847.983887 510.02002 848.945312 510.02002 848.945312 507.31665 847.700195 506.764404 847.700195 505.663086 848.945312 505.663086 849.31543 504.682617 850.422119 504.682617 850.422119 505.663086 851.456543 506.098633 851.456543 509.045898 852.197021 509.045898 852.197021 509.728271 854.983398 509.728271 854.983398 509.045898 856.282471 509.045898 856.00708 508.366455 854.983398 508.036377 854.983398 505.663086 854.983398 503.82666 853.781494 503.501465 853.781494 500.892334 848.305176 495.928711 848.615967 492.188477 847.700195 490.126709 849.31543 489.124756 848.945312 486.701904 847.700195 485.126221 847.700195 479.77417 847.700195 477.355225 848.615967 476.846924 850.025635 475.201172 851.456543 475.624268 852.197021 474.155762 856.00708 474.629395 856.00708 471.748047 854.983398 471.748047 853.781494 472.269775 853.216797 468.80835 853.216797 466.946045 852.508545 465.268066 850.025635 465.268066 848.945312 463.276367 846.092529 462.237793 844.749512 462.237793 844.749512 464.684326 842.998047 464.974854 839.091797 464.974854 837.513428 463.276367 835.836426 461.641113 835.836426 460.247559 829.657471 460.247559 829.280029 461.641113 828.420898 462.910889 827.511719 463.276367 826.551758 462.910889 826.551758 461.113281 825.20166 461.113281 823.441406 461.113281 821.28833 462.237793 819.667725 461.113281 818.200195 461.641113 817.308594 463.537598 815.521973 464.254883 813.701904 465.755615 809.600586 466.082764 810.211914 467.54248 809.181885 468.80835 808.292969 467.54248 807.149414 467.54248 803.628906 471.119385 801.643311 472.912598 800.38623 475.201172 800.38623 476.846924 797.432861 476.846924 794.018555 483.825928 791.673584 484.499512 790.662842 486.701904 790.662842 488.315918 788.924805 490.126709 787.378662 492.71582 784.734863 493.136353 784.734863 495.429688 782.710693 496.545898 781.570068 497.9021 781.82666 500.010986 783.561768 500.591553 787.95874 500.010986 790.662842 499.049805 794.018555 498.503906 796.321533 498.794434 793.362305 500.591553 791.673584 502.30957 791.673584 504.682617 791.673584 505.346924 790.662842 507.31665 785.307617 512.747803 784.207764 512.747803 784.207764 511.337646 785.763184 510.02002 787.65332 506.764404 787.65332 505.023193 785.307617 503.82666 782.710693 503.82666 782.710693 506.098633 784.207764 506.098633 785.307617 506.764404 779.101807 514.230469 773.022705 514.972656 771.862305 516.099609 771.539307 517.140625 766.847412 517.140625"></polygon>
            <path d="M687.165527,576.054199 L724.092285,576.054199 L738.050293,563.009277 L741.154297,553.634277 L741.154297,534.977051 L750.213867,519.578613 L766.951172,519.578613 L766.951172,521.406738 L766.951172,528.608398 L767.521973,530.856934 L767.521973,531.740723 L771.186035,531.740723 L771.186035,532.787598 L775.290527,532.787598 L773.027832,534.977051 L773.027832,537.729492 L765.143555,546.677246 L764.271484,544.27002 L762.661621,544.27002 L762.661621,545.733887 L760.662109,545.733887 L760.662109,544.27002 L759.433594,544.27002 L758.359375,544.27002 L758.359375,545.009766 L757.147949,545.009766 L757.147949,547.816406 L755.769043,547.816406 L755.769043,549.114258 L757.147949,549.114258 L755.769043,557.045898 L754.415039,559.729492 L754.415039,561.568848 L750.779785,567.925781 L749.463867,568.816406 L749.463867,570.604004 L750.213867,572.904785 L750.779785,574.717285 L749.463867,577.791016 L748.53125,579.95166 L748.53125,581.367188 L750.779785,581.367188 L750.213867,584.428711 L747.800781,585.677246 L747.132324,587.709961 L745.503906,588.386719 L744.476562,589.833496 L742.613281,590.675781 L741.154297,590.675781 L741.154297,593.305176 L742.613281,594.043945 L741.711914,596.924316 L741.154297,599.729492 L739.919922,602.488281 L738.590332,605.521973 L738.050293,607.350098 L738.050293,609.86377 L737.214844,612.312012 L735.624512,614.150879 L734.572754,616.482422 L731.805664,617.047852 L731.805664,619.672852 L728.975586,623.077148 L726.767578,623.829102 L722.376465,624.777832 L719.416504,622.432129 L717.17334,622.432129 L715.075195,621.181152 L712.773438,621.181152 L706.800293,618.897949 L703.223633,615.583984 L700.186035,614.150879 L698.569336,612.312012 L697.641602,612.988281 L696.479004,612.988281 C693.301595,612.470703 691.285645,610.591309 690.431152,607.350098 C689.57666,604.108887 689.149414,603.105306 689.149414,604.339355 L689.149414,600.335938 L687.165527,599.729492 L687.693359,596.924316 L686.354004,595.03418 L686.354004,593.305176 L686.354004,589.833496 L686.354004,586.96582 L685.733398,584.428711 L686.354004,579.95166 L685.733398,577.791016 L687.165527,576.054199 Z" id="Path-38" fill="#D8D8D8"></path>
            <g id="33622" transform="translate(1129.000000, 266.000000)" fill-rule="nonzero" fill="#CE4040">
                <path d="M26.5,0 C11.8655406,0 0,10.6318359 0,23.75 C0,27.4238281 0.931640625,30.9075078 2.595675,34.0107422 C2.68875625,34.1870859 26.5,76 26.5,76 L50.1171313,34.5302734 C51.9597094,31.2971563 53,27.6325313 53,23.75 C53,10.6318359 41.1371094,0 26.5,0 Z M26.5,38 C17.719225,38 10.6,31.6171875 10.6,23.75 C10.6,15.8828125 17.719225,9.5 26.5,9.5 C35.278125,9.5 42.4,15.8828125 42.4,23.75 C42.4,31.6171875 35.278125,38 26.5,38 Z" id="Shape"></path>
            </g>
        </g>
    </g>
</svg>